<svg width="21" height="21" viewBox="0 0 21 21" fill="none" xmlns="http://www.w3.org/2000/svg">
<path d="M3 3.625C3 3.12772 3.19754 2.65081 3.54917 2.29917C3.90081 1.94754 4.37772 1.75 4.875 1.75H12.2188C12.4855 1.75 12.7496 1.80254 12.9961 1.90462C13.2425 2.0067 13.4664 2.15632 13.6551 2.34494C13.8437 2.53356 13.9933 2.75748 14.0954 3.00392C14.1975 3.25037 14.25 3.5145 14.25 3.78125V8.625H15.9688C16.2355 8.625 16.4996 8.67754 16.7461 8.77962C16.9925 8.8817 17.2164 9.03132 17.4051 9.21994C17.5937 9.40856 17.7433 9.63248 17.8454 9.87892C17.9475 10.1254 18 10.3895 18 10.6562V18.625C18 18.7908 17.9342 18.9497 17.8169 19.0669C17.6997 19.1842 17.5408 19.25 17.375 19.25H14.875V16.4375C14.875 16.1889 14.7762 15.9504 14.6004 15.7746C14.4246 15.5988 14.1861 15.5 13.9375 15.5H7.0625C6.81386 15.5 6.5754 15.5988 6.39959 15.7746C6.22377 15.9504 6.125 16.1889 6.125 16.4375V19.25H3.625C3.45924 19.25 3.30027 19.1842 3.18306 19.0669C3.06585 18.9497 3 18.7908 3 18.625V3.625ZM13.625 16.75V19.25H11.125V16.75H13.625ZM9.875 16.75V19.25H7.375V16.75H9.875ZM8 5.8125C8 5.56386 7.90123 5.3254 7.72541 5.14959C7.5496 4.97377 7.31114 4.875 7.0625 4.875C6.81386 4.875 6.5754 4.97377 6.39959 5.14959C6.22377 5.3254 6.125 5.56386 6.125 5.8125C6.125 6.06114 6.22377 6.2996 6.39959 6.47541C6.5754 6.65123 6.81386 6.75 7.0625 6.75C7.31114 6.75 7.5496 6.65123 7.72541 6.47541C7.90123 6.2996 8 6.06114 8 5.8125ZM8 8.9375C8 8.68886 7.90123 8.4504 7.72541 8.27459C7.5496 8.09877 7.31114 8 7.0625 8C6.81386 8 6.5754 8.09877 6.39959 8.27459C6.22377 8.4504 6.125 8.68886 6.125 8.9375C6.125 9.18614 6.22377 9.4246 6.39959 9.60041C6.5754 9.77623 6.81386 9.875 7.0625 9.875C7.31114 9.875 7.5496 9.77623 7.72541 9.60041C7.90123 9.4246 8 9.18614 8 8.9375ZM7.0625 13C7.31114 13 7.5496 12.9012 7.72541 12.7254C7.90123 12.5496 8 12.3111 8 12.0625C8 11.8139 7.90123 11.5754 7.72541 11.3996C7.5496 11.2238 7.31114 11.125 7.0625 11.125C6.81386 11.125 6.5754 11.2238 6.39959 11.3996C6.22377 11.5754 6.125 11.8139 6.125 12.0625C6.125 12.3111 6.22377 12.5496 6.39959 12.7254C6.5754 12.9012 6.81386 13 7.0625 13ZM11.125 5.8125C11.125 5.56386 11.0262 5.3254 10.8504 5.14959C10.6746 4.97377 10.4361 4.875 10.1875 4.875C9.93886 4.875 9.7004 4.97377 9.52459 5.14959C9.34877 5.3254 9.25 5.56386 9.25 5.8125C9.25 6.06114 9.34877 6.2996 9.52459 6.47541C9.7004 6.65123 9.93886 6.75 10.1875 6.75C10.4361 6.75 10.6746 6.65123 10.8504 6.47541C11.0262 6.2996 11.125 6.06114 11.125 5.8125ZM10.1875 9.875C10.4361 9.875 10.6746 9.77623 10.8504 9.60041C11.0262 9.4246 11.125 9.18614 11.125 8.9375C11.125 8.68886 11.0262 8.4504 10.8504 8.27459C10.6746 8.09877 10.4361 8 10.1875 8C9.93886 8 9.7004 8.09877 9.52459 8.27459C9.34877 8.4504 9.25 8.68886 9.25 8.9375C9.25 9.18614 9.34877 9.4246 9.52459 9.60041C9.7004 9.77623 9.93886 9.875 10.1875 9.875ZM11.125 12.0625C11.125 11.8139 11.0262 11.5754 10.8504 11.3996C10.6746 11.2238 10.4361 11.125 10.1875 11.125C9.93886 11.125 9.7004 11.2238 9.52459 11.3996C9.34877 11.5754 9.25 11.8139 9.25 12.0625C9.25 12.3111 9.34877 12.5496 9.52459 12.7254C9.7004 12.9012 9.93886 13 10.1875 13C10.4361 13 10.6746 12.9012 10.8504 12.7254C11.0262 12.5496 11.125 12.3111 11.125 12.0625ZM13.3125 13C13.5611 13 13.7996 12.9012 13.9754 12.7254C14.1512 12.5496 14.25 12.3111 14.25 12.0625C14.25 11.8139 14.1512 11.5754 13.9754 11.3996C13.7996 11.2238 13.5611 11.125 13.3125 11.125C13.0639 11.125 12.8254 11.2238 12.6496 11.3996C12.4738 11.5754 12.375 11.8139 12.375 12.0625C12.375 12.3111 12.4738 12.5496 12.6496 12.7254C12.8254 12.9012 13.0639 13 13.3125 13Z" fill="#001209"/>
</svg>
