<svg width="115" height="33" viewBox="0 0 115 33" fill="none" xmlns="http://www.w3.org/2000/svg">
<path d="M111.592 9.57541C110.352 9.57541 109.474 8.71135 109.292 7.51282H114.965C114.965 4.93458 113.696 3.26221 111.494 3.26221C109.501 3.26221 107.899 4.85096 107.899 7.01111C107.899 9.227 109.599 10.8018 111.606 10.8018C112.623 10.8018 113.877 10.3698 114.519 9.6869L113.654 8.79497C113.222 9.24094 112.344 9.57541 111.592 9.57541ZM111.55 4.48861C112.79 4.48861 113.473 5.29693 113.627 6.41184H109.306C109.529 5.24118 110.435 4.48861 111.55 4.48861Z" fill="#001209"/>
<path d="M103.611 3.26177C102.622 3.26177 101.744 3.77742 101.312 4.50211V0.892578H99.9461V10.6341H101.312V6.16055C101.312 5.22681 102.218 4.46031 103.305 4.46031C104.28 4.46031 104.963 5.21287 104.963 6.28598V10.6341H106.315V6.04906C106.315 4.4185 105.2 3.26177 103.611 3.26177Z" fill="#001209"/>
<path d="M98.0381 9.33773C97.8848 9.49103 97.6061 9.60252 97.2995 9.60252C96.8954 9.60252 96.5609 9.24017 96.5609 8.73846V4.59934H98.2611V3.42868H96.5609V1.44971H95.209V3.42868H94.122V4.59934H95.209V8.83602C95.209 9.99274 95.9895 10.8011 97.1044 10.8011C97.6201 10.8011 98.1496 10.6059 98.5399 10.2854L98.0381 9.33773Z" fill="#001209"/>
<path d="M86.0003 3.26221C85.0247 3.26221 84.1468 3.76392 83.7147 4.47468V3.42944H82.335V10.6346H83.7147V5.96588C83.8262 5.11575 84.6903 4.46074 85.6937 4.46074C86.6693 4.46074 87.3521 5.21331 87.3521 6.28641V10.6346H88.704V6.04949C88.704 4.41893 87.5891 3.26221 86.0003 3.26221Z" fill="#001209"/>
<path d="M76.9439 10.8018C78.9926 10.8018 80.7207 9.0737 80.7207 7.02504C80.7207 4.97639 78.9926 3.26221 76.9439 3.26221C74.8813 3.26221 73.1393 4.97639 73.1393 7.02504C73.1393 9.0737 74.8813 10.8018 76.9439 10.8018ZM76.9439 9.60328C75.62 9.60328 74.519 8.43262 74.519 7.02504C74.519 5.6314 75.62 4.46074 76.9439 4.46074C78.24 4.46074 79.341 5.6314 79.341 7.02504C79.341 8.43262 78.24 9.60328 76.9439 9.60328Z" fill="#001209"/>
<path d="M66.106 0.892578V4.66935C65.5486 3.79136 64.6566 3.26177 63.5417 3.26177C61.6464 3.26177 60.2249 4.82265 60.2249 7.02461C60.2249 9.2405 61.6464 10.8014 63.5417 10.8014C64.6566 10.8014 65.5486 10.2718 66.106 9.37987V10.6341H67.4718V0.892578H66.106ZM63.8762 9.60285C62.5522 9.60285 61.6185 8.52974 61.6185 7.02461C61.6185 5.51947 62.5522 4.46031 63.8762 4.46031C65.1723 4.46031 66.106 5.51947 66.106 7.02461C66.106 8.52974 65.1723 9.60285 63.8762 9.60285Z" fill="#001209"/>
<path d="M55.5538 3.26221C54.7594 3.26221 53.8536 3.47125 52.8223 3.9869L53.324 5.00426C53.9511 4.68372 54.6479 4.40499 55.3587 4.40499C56.7942 4.40499 57.2122 5.36661 57.2122 6.27248V6.49546C56.5154 6.25854 55.7489 6.10524 55.0382 6.10524C53.4494 6.10524 52.1533 7.06685 52.1533 8.50231C52.1533 9.90989 53.2822 10.8018 54.8152 10.8018C55.6932 10.8018 56.6827 10.3977 57.2122 9.64509V10.6346H58.5641V6.27248C58.5641 4.48861 57.491 3.26221 55.5538 3.26221ZM55.08 9.71478C54.1741 9.71478 53.4773 9.24094 53.4773 8.4605C53.4773 7.68006 54.2856 7.13654 55.2472 7.13654C55.958 7.13654 56.6269 7.23409 57.2122 7.41526V8.37688C56.9753 9.26881 55.9719 9.71478 55.08 9.71478Z" fill="#001209"/>
<path d="M47.1385 10.8018C49.1872 10.8018 50.9153 9.0737 50.9153 7.02504C50.9153 4.97639 49.1872 3.26221 47.1385 3.26221C45.0759 3.26221 43.3339 4.97639 43.3339 7.02504C43.3339 9.0737 45.0759 10.8018 47.1385 10.8018ZM47.1385 9.60328C45.8145 9.60328 44.7136 8.43262 44.7136 7.02504C44.7136 5.6314 45.8145 4.46074 47.1385 4.46074C48.4346 4.46074 49.5356 5.6314 49.5356 7.02504C49.5356 8.43262 48.4346 9.60328 47.1385 9.60328Z" fill="#001209"/>
<path d="M40.3488 10.6341H41.7145V0.892578H40.3488V10.6341Z" fill="#001209"/>
<path d="M35.6713 3.26221C34.6957 3.26221 33.8177 3.76392 33.3857 4.47468V3.42944H32.006V10.6346H33.3857V5.96588C33.4972 5.11575 34.3612 4.46074 35.3647 4.46074C36.3402 4.46074 37.0231 5.21331 37.0231 6.28641V10.6346H38.3749V6.04949C38.3749 4.41893 37.26 3.26221 35.6713 3.26221Z" fill="#001209"/>
<path d="M22.1817 10.6338H23.4499L25.1919 5.28226L26.92 10.6338H28.1883L30.6132 3.42871H29.2056L27.5611 8.79424L25.7773 3.42871H24.6066L22.8227 8.79424L21.1643 3.42871H19.7567L22.1817 10.6338Z" fill="#001209"/>
<path d="M15.2644 10.8018C17.313 10.8018 19.0411 9.0737 19.0411 7.02504C19.0411 4.97639 17.313 3.26221 15.2644 3.26221C13.2018 3.26221 11.4597 4.97639 11.4597 7.02504C11.4597 9.0737 13.2018 10.8018 15.2644 10.8018ZM15.2644 9.60328C13.9404 9.60328 12.8394 8.43262 12.8394 7.02504C12.8394 5.6314 13.9404 4.46074 15.2644 4.46074C16.5605 4.46074 17.6614 5.6314 17.6614 7.02504C17.6614 8.43262 16.5605 9.60328 15.2644 9.60328Z" fill="#001209"/>
<path d="M1.4433 10.6344H4.74623C7.84012 10.6344 10.0421 8.64148 10.0421 5.84026C10.0421 3.03903 7.84012 1.06006 4.74623 1.06006H1.4433V10.6344ZM2.85088 9.35224V2.34221H4.82985C7.04574 2.34221 8.59269 3.7916 8.59269 5.84026C8.59269 7.90285 7.04574 9.35224 4.82985 9.35224H2.85088Z" fill="#001209"/>
<path d="M92.5345 26.4687C91.3443 26.4687 90.4663 25.7273 90.1347 24.6347H97.4123C97.4123 20.83 95.5587 18.4302 92.3979 18.4302C89.4518 18.4302 87.208 20.6349 87.208 23.6786C87.208 26.7809 89.5493 28.9856 92.554 28.9856C94.0369 28.9856 95.7733 28.3613 96.6708 27.4248L94.8563 25.5712C94.31 26.098 93.3345 26.4687 92.5345 26.4687ZM92.515 20.9471C93.6661 20.9471 94.4076 21.591 94.6807 22.586H90.1737C90.5444 21.5714 91.4419 20.9471 92.515 20.9471Z" fill="#001209"/>
<path d="M82.677 20.5374V18.6643H79.8284V28.7515H82.677V23.9323C82.677 22.0397 84.0233 20.83 86.1305 20.83V18.4302C84.5891 18.4302 83.3404 19.2301 82.677 20.5374Z" fill="#001209"/>
<path d="M72.4183 28.9856C75.4035 28.9856 77.9009 26.5663 77.9009 23.6981C77.9009 20.83 75.4035 18.4302 72.4183 18.4302C69.4136 18.4302 66.8967 20.83 66.8967 23.6981C66.8967 26.5663 69.4136 28.9856 72.4183 28.9856ZM72.4183 26.5858C70.8965 26.5858 69.6283 25.259 69.6283 23.6981C69.6283 22.1373 70.8965 20.83 72.4183 20.83C73.9207 20.83 75.1889 22.1373 75.1889 23.6981C75.1889 25.259 73.9207 26.5858 72.4183 26.5858Z" fill="#001209"/>
<path d="M64.9957 26.2544C64.8006 26.4495 64.4104 26.5861 64.0201 26.5861C63.4933 26.5861 63.0641 26.1178 63.0641 25.4544V20.9669H65.2493V18.6646H63.0641V15.894H60.3326V18.6646H58.9473V20.9669H60.3326V25.9032C60.3326 27.7177 61.5813 28.9859 63.3568 28.9859C64.1762 28.9859 65.0932 28.6347 65.6786 28.1079L64.9957 26.2544Z" fill="#001209"/>
<path d="M52.4928 28.9856C55.7706 28.9856 57.7022 27.2881 57.7022 24.7322C57.7022 22.2543 55.7902 21.3958 52.9025 20.752C50.8344 20.2837 50.0344 19.9715 50.0344 18.996C50.0344 18.196 50.7758 17.5522 52.005 17.5522C53.2927 17.5522 54.639 18.079 55.8292 19.035L57.3315 16.9668C55.9657 15.7962 54.2683 15.1133 52.0831 15.1133C49.1564 15.1133 47.1273 16.8107 47.1273 19.2886C47.1273 21.8836 49.1369 22.6836 51.966 23.3274C54.0146 23.7957 54.7951 24.0883 54.7951 25.0444C54.7951 25.8834 54.0537 26.5467 52.6099 26.5467C50.9124 26.5467 49.4686 25.8834 48.2004 24.7907L46.5419 26.7614C48.1028 28.2052 50.171 28.9856 52.4928 28.9856Z" fill="#001209"/>
<path d="M35.2362 18.4302C33.8314 18.4302 32.6607 19.035 31.8608 20.0691V18.6643H29.0121V32.1074H31.8608V27.3272C32.6607 28.3808 33.8314 28.9856 35.2362 28.9856C37.9287 28.9856 39.8798 26.8004 39.8798 23.6981C39.8798 20.6154 37.9287 18.4302 35.2362 18.4302ZM34.4167 26.5858C33.0314 26.5858 32.0168 25.5712 31.8608 24.0884V23.3079C32.0168 21.8446 33.0314 20.83 34.4167 20.83C35.9971 20.83 37.1092 22.0202 37.1092 23.6981C37.1092 25.3956 35.9971 26.5858 34.4167 26.5858Z" fill="#001209"/>
<path d="M22.3558 18.4302C20.9511 18.4302 19.7804 19.035 18.9804 20.0691V18.6643H16.1318V32.1074H18.9804V27.3272C19.7804 28.3808 20.9511 28.9856 22.3558 28.9856C25.0484 28.9856 26.9995 26.8004 26.9995 23.6981C26.9995 20.6154 25.0484 18.4302 22.3558 18.4302ZM21.5364 26.5858C20.1511 26.5858 19.1365 25.5712 18.9804 24.0884V23.3079C19.1365 21.8446 20.1511 20.83 21.5364 20.83C23.1168 20.83 24.2289 22.0202 24.2289 23.6981C24.2289 25.3956 23.1168 26.5858 21.5364 26.5858Z" fill="#001209"/>
<path d="M11.3911 28.7517H14.63L9.16689 15.3477H5.94758L0.484497 28.7517H3.70381L4.5623 26.6445H10.5327L11.3911 28.7517ZM5.55736 24.2057L7.54748 19.3084L9.5376 24.2057H5.55736Z" fill="#001209"/>
</svg>
