<svg width="31" height="37" viewBox="0 0 31 37" fill="none" xmlns="http://www.w3.org/2000/svg">
<path d="M25.5413 19.6724C25.5779 16.8259 27.1066 14.1325 29.5317 12.6416C28.0018 10.4566 25.4393 9.07131 22.7733 8.98789C19.9298 8.68943 17.1732 10.6894 15.7242 10.6894C14.2471 10.6894 12.0162 9.01753 9.61378 9.06696C6.48238 9.16813 3.56313 10.9485 2.03964 13.6861C-1.23526 19.3561 1.20752 27.6891 4.3446 32.2723C5.91415 34.5165 7.74851 37.0234 10.1487 36.9345C12.4975 36.8371 13.3747 35.4368 16.2098 35.4368C19.0187 35.4368 19.8417 36.9345 22.2906 36.878C24.8109 36.8371 26.3988 34.6238 27.9133 32.3583C29.041 30.7592 29.9088 28.9918 30.4845 27.1216C27.5227 25.8689 25.5447 22.8882 25.5413 19.6724Z" fill="#001209"/>
<path d="M20.9156 5.97377C22.2898 4.32411 22.9668 2.20375 22.8029 0.0629883C20.7034 0.283495 18.7641 1.28689 17.3714 2.87326C16.0095 4.42322 15.3007 6.50627 15.4347 8.56521C17.5349 8.58683 19.5996 7.61063 20.9156 5.97377Z" fill="#001209"/>
</svg>
