<svg width="22" height="28" viewBox="0 0 22 28" fill="none" xmlns="http://www.w3.org/2000/svg">
<path d="M19.25 13.2895H2.75V6.18421H19.25M17.1875 21.8158C16.6405 21.8158 16.1159 21.5912 15.7291 21.1915C15.3423 20.7917 15.125 20.2495 15.125 19.6842C15.125 19.1189 15.3423 18.5767 15.7291 18.177C16.1159 17.7772 16.6405 17.5526 17.1875 17.5526C17.7345 17.5526 18.2591 17.7772 18.6459 18.177C19.0327 18.5767 19.25 19.1189 19.25 19.6842C19.25 20.2495 19.0327 20.7917 18.6459 21.1915C18.2591 21.5912 17.7345 21.8158 17.1875 21.8158ZM4.8125 21.8158C4.26549 21.8158 3.74089 21.5912 3.35409 21.1915C2.9673 20.7917 2.75 20.2495 2.75 19.6842C2.75 19.1189 2.9673 18.5767 3.35409 18.177C3.74089 17.7772 4.26549 17.5526 4.8125 17.5526C5.35951 17.5526 5.88411 17.7772 6.27091 18.177C6.6577 18.5767 6.875 19.1189 6.875 19.6842C6.875 20.2495 6.6577 20.7917 6.27091 21.1915C5.88411 21.5912 5.35951 21.8158 4.8125 21.8158ZM0 20.3947C0 21.6453 0.53625 22.7679 1.375 23.5495V26.079C1.375 26.4558 1.51987 26.8173 1.77773 27.0838C2.03559 27.3503 2.38533 27.5 2.75 27.5H4.125C4.48967 27.5 4.83941 27.3503 5.09727 27.0838C5.35513 26.8173 5.5 26.4558 5.5 26.079V24.6579H16.5V26.079C16.5 26.4558 16.6449 26.8173 16.9027 27.0838C17.1606 27.3503 17.5103 27.5 17.875 27.5H19.25C19.6147 27.5 19.9644 27.3503 20.2223 27.0838C20.4801 26.8173 20.625 26.4558 20.625 26.079V23.5495C21.4638 22.7679 22 21.6453 22 20.3947V6.18421C22 1.21053 17.0775 0.5 11 0.5C4.9225 0.5 0 1.21053 0 6.18421V20.3947Z" fill="white"/>
</svg>
