<svg width="440" height="170" viewBox="0 0 440 170" fill="none" xmlns="http://www.w3.org/2000/svg">
<path d="M428.8 59.3277C430.148 67.2065 425.773 75.5204 416.431 83.8316C407.104 92.1284 392.924 100.33 374.93 107.972C338.949 123.255 287.825 136.258 230.091 143.347C172.357 150.436 118.98 150.263 79.3594 144.264C59.5455 141.263 43.2015 136.81 31.4791 131.098C19.7365 125.376 12.7574 118.456 11.4101 110.577C10.0628 102.698 14.4369 94.3841 23.7797 86.073C33.1065 77.7761 47.2866 69.5748 65.2805 61.9323C101.262 46.6499 152.385 33.6463 210.119 26.5574C267.854 19.4685 321.23 19.6411 360.851 25.6408C380.665 28.6411 397.009 33.0945 408.731 38.8069C420.474 44.529 427.453 51.449 428.8 59.3277Z" stroke="#28A265"/>
<path d="M430.615 73.9196C431.174 81.8629 425.989 89.844 415.852 97.4781C405.733 105.099 390.787 112.287 372.096 118.653C334.721 131.382 282.484 140.789 224.248 143.841C166.012 146.893 112.84 143.011 73.9554 134.278C54.5095 129.91 38.6658 124.336 27.5526 117.828C16.4196 111.309 10.1548 103.928 9.59606 95.9843C9.0373 88.041 14.2215 80.0598 24.3588 72.4257C34.4781 64.8052 49.4242 57.6172 68.115 51.2512C105.49 38.5215 157.727 29.1153 215.963 26.0633C274.199 23.0113 327.371 26.8932 366.255 35.6263C385.701 39.9937 401.545 45.568 412.658 52.0758C423.791 58.5952 430.056 65.9763 430.615 73.9196Z" stroke="#28A265"/>
</svg>
