<svg width="58" height="49" viewBox="0 0 58 49" fill="none" xmlns="http://www.w3.org/2000/svg">
<path d="M13 3.5C10.6131 3.5 8.32387 4.44821 6.63604 6.13604C4.94821 7.82387 4 10.1131 4 12.5V13.4045L31 27.944L58 13.409V12.5C58 10.1131 57.0518 7.82387 55.364 6.13604C53.6761 4.44821 51.3869 3.5 49 3.5H13ZM58 18.5165L32.0665 32.48C31.7387 32.6565 31.3723 32.7488 31 32.7488C30.6277 32.7488 30.2613 32.6565 29.9335 32.48L4 18.5165V39.5C4 41.8869 4.94821 44.1761 6.63604 45.864C8.32387 47.5518 10.6131 48.5 13 48.5H49C51.3869 48.5 53.6761 47.5518 55.364 45.864C57.0518 44.1761 58 41.8869 58 39.5V18.5165Z" fill="#00BD5E"/>
<g filter="url(#filter0_b_1634_2075)">
<path d="M9 0C6.61305 0 4.32387 0.948211 2.63604 2.63604C0.948211 4.32387 0 6.61305 0 9V9.9045L27 24.444L54 9.909V9C54 6.61305 53.0518 4.32387 51.364 2.63604C49.6761 0.948211 47.3869 0 45 0H9ZM54 15.0165L28.0665 28.98C27.7387 29.1565 27.3723 29.2488 27 29.2488C26.6277 29.2488 26.2613 29.1565 25.9335 28.98L0 15.0165V36C0 38.3869 0.948211 40.6761 2.63604 42.364C4.32387 44.0518 6.61305 45 9 45H45C47.3869 45 49.6761 44.0518 51.364 42.364C53.0518 40.6761 54 38.3869 54 36V15.0165Z" fill="#7EDBAD" fill-opacity="0.39"/>
</g>
<defs>
<filter id="filter0_b_1634_2075" x="-13.8" y="-13.8" width="81.6" height="72.6" filterUnits="userSpaceOnUse" color-interpolation-filters="sRGB">
<feFlood flood-opacity="0" result="BackgroundImageFix"/>
<feGaussianBlur in="BackgroundImageFix" stdDeviation="6.9"/>
<feComposite in2="SourceAlpha" operator="in" result="effect1_backgroundBlur_1634_2075"/>
<feBlend mode="normal" in="SourceGraphic" in2="effect1_backgroundBlur_1634_2075" result="shape"/>
</filter>
</defs>
</svg>
