<svg width="70" height="59" viewBox="0 0 70 59" fill="none" xmlns="http://www.w3.org/2000/svg">
<path d="M25 1.5C22.6131 1.5 20.3239 2.44821 18.636 4.13604C16.9482 5.82387 16 8.11305 16 10.5V11.4045L43 25.944L70 11.409V10.5C70 8.11305 69.0518 5.82387 67.364 4.13604C65.6761 2.44821 63.3869 1.5 61 1.5H25ZM70 16.5165L44.0665 30.48C43.7387 30.6565 43.3723 30.7488 43 30.7488C42.6277 30.7488 42.2613 30.6565 41.9335 30.48L16 16.5165V37.5C16 39.8869 16.9482 42.1761 18.636 43.864C20.3239 45.5518 22.6131 46.5 25 46.5H61C63.3869 46.5 65.6761 45.5518 67.364 43.864C69.0518 42.1761 70 39.8869 70 37.5V16.5165Z" fill="#940A0A"/>
<g filter="url(#filter0_b_1634_2075)">
<path d="M8.68287 12.3401C6.38651 12.9914 4.44293 14.5283 3.27971 16.6126C2.11649 18.6969 1.82891 21.158 2.48024 23.4544L2.72705 24.3245L32.6698 30.9448L54.679 9.59393L54.431 8.71943C53.7797 6.42306 52.2428 4.47948 50.1585 3.31626C48.0741 2.15304 45.6131 1.86546 43.3167 2.51679L8.68287 12.3401ZM56.0727 14.5076L34.9336 35.0177C34.6664 35.2769 34.339 35.4657 33.9809 35.5673C33.6228 35.6689 33.245 35.68 32.8815 35.5997L4.12195 29.2425L9.8477 49.4297C10.499 51.7261 12.0359 53.6697 14.1202 54.8329C16.2046 55.9961 18.6656 56.2837 20.962 55.6324L55.5958 45.8091C57.8922 45.1578 59.8358 43.6209 60.999 41.5366C62.1622 39.4522 62.4498 36.9912 61.7985 34.6948L56.0727 14.5076Z" fill="#D53F3F" fill-opacity="0.39"/>
</g>
<defs>
<filter id="filter0_b_1634_2075" x="-11.6613" y="-11.6247" width="87.601" height="81.3983" filterUnits="userSpaceOnUse" color-interpolation-filters="sRGB">
<feFlood flood-opacity="0" result="BackgroundImageFix"/>
<feGaussianBlur in="BackgroundImageFix" stdDeviation="6.9"/>
<feComposite in2="SourceAlpha" operator="in" result="effect1_backgroundBlur_1634_2075"/>
<feBlend mode="normal" in="SourceGraphic" in2="effect1_backgroundBlur_1634_2075" result="shape"/>
</filter>
</defs>
</svg>
