<svg width="115" height="33" viewBox="0 0 115 33" fill="none" xmlns="http://www.w3.org/2000/svg">
<path d="M55.8281 3.34033C54.8522 3.34033 53.974 3.84219 53.5418 4.55315V3.50762H52.1617V10.7148H53.5418V6.04477C53.6534 5.1944 54.5177 4.5392 55.5214 4.5392C56.4972 4.5392 57.1803 5.29199 57.1803 6.3654V10.7148H58.5325V6.12841C58.5325 4.49738 57.4173 3.34033 55.8281 3.34033Z" fill="#001209"/>
<path d="M45.5318 10.8818C48.2223 10.8818 50.4806 8.60954 50.4806 5.91905C50.4806 3.22856 48.2223 0.970215 45.5318 0.970215C42.8413 0.970215 40.5551 3.22856 40.5551 5.91905C40.5551 8.60954 42.8413 10.8818 45.5318 10.8818ZM45.5318 9.58537C43.6219 9.58537 42.0049 7.91253 42.0049 5.91905C42.0049 3.93952 43.6219 2.26667 45.5318 2.26667C47.4416 2.26667 49.0447 3.93952 49.0447 5.91905C49.0447 7.91253 47.4416 9.58537 45.5318 9.58537Z" fill="#001209"/>
<path d="M34.9923 9.41809C34.8389 9.57143 34.5601 9.68296 34.2534 9.68296C33.8491 9.68296 33.5146 9.32051 33.5146 8.81865V4.67836H35.2153V3.50737H33.5146V1.52783H32.1624V3.50737H31.075V4.67836H32.1624V8.91623C32.1624 10.0733 32.943 10.8818 34.0583 10.8818C34.574 10.8818 35.1038 10.6867 35.4941 10.366L34.9923 9.41809Z" fill="#001209"/>
<path d="M28.9393 2.30881C29.3854 2.30881 29.7617 1.91848 29.7617 1.47239C29.7617 1.04023 29.3854 0.649902 28.9393 0.649902C28.4653 0.649902 28.1028 1.04023 28.1028 1.47239C28.1028 1.91848 28.4653 2.30881 28.9393 2.30881ZM28.2422 10.7149H29.6223V3.50768H28.2422V10.7149Z" fill="#001209"/>
<path d="M22.3588 9.41809C22.2054 9.57143 21.9266 9.68296 21.6199 9.68296C21.2157 9.68296 20.8811 9.32051 20.8811 8.81865V4.67836H22.5818V3.50737H20.8811V1.52783H19.5289V3.50737H18.4415V4.67836H19.5289V8.91623C19.5289 10.0733 20.3095 10.8818 21.4248 10.8818C21.9406 10.8818 22.4703 10.6867 22.8606 10.366L22.3588 9.41809Z" fill="#001209"/>
<path d="M14.0121 9.65532C12.7714 9.65532 11.8931 8.79102 11.7119 7.59215H17.3856C17.3856 5.01318 16.1171 3.34033 13.9145 3.34033C11.921 3.34033 10.3179 4.92954 10.3179 7.09029C10.3179 9.30682 12.0186 10.8821 14.026 10.8821C15.0437 10.8821 16.2983 10.4499 16.9396 9.76685L16.0752 8.87466C15.6431 9.32076 14.7649 9.65532 14.0121 9.65532ZM13.9703 4.56709C15.2109 4.56709 15.894 5.37563 16.0474 6.49086H11.7258C11.9489 5.31987 12.855 4.56709 13.9703 4.56709Z" fill="#001209"/>
<path d="M4.79549 6.78335H7.36052V8.79077C6.70532 9.29262 5.7992 9.58537 4.99066 9.58537C3.06688 9.58537 1.4498 7.91253 1.4498 5.91905C1.4498 3.93952 3.06688 2.26667 4.99066 2.26667C5.98042 2.26667 7.10959 2.71276 7.76479 3.42372L8.75456 2.47578C7.84843 1.54177 6.34287 0.970215 4.99066 0.970215C2.30016 0.970215 0 3.22856 0 5.91905C0 8.60954 2.30016 10.8818 4.99066 10.8818C6.34287 10.8818 7.84843 10.2963 8.75456 9.37627V5.5566H4.79549V6.78335Z" fill="#001209"/>
<path d="M106.717 32.3501C108.298 32.3501 109.586 31.3157 110.347 29.3445L114.484 18.7471H111.577L109.059 25.8316L106.405 18.7471H103.458L107.654 28.9347L107.302 29.6763C107.088 30.0471 106.658 30.2228 106.112 30.2228C105.78 30.2228 105.273 30.0471 104.785 29.7739L104.18 31.7256C104.863 32.0964 105.878 32.3501 106.717 32.3501Z" fill="#001209"/>
<path d="M97.5821 18.5127C96.1769 18.5127 94.7912 18.903 93.3665 19.6251L94.3228 21.5182C95.123 21.1084 96.0013 20.7961 96.9381 20.7961C98.597 20.7961 99.2605 21.7329 99.2605 22.8063V23.0015C98.4018 22.6697 97.504 22.4941 96.6843 22.4941C94.3424 22.4941 92.4883 23.8602 92.4883 25.8509C92.4883 27.783 94.1472 29.0711 96.294 29.0711C97.3869 29.0711 98.5384 28.6418 99.2605 27.8221V28.8369H102.012V22.8063C102.012 20.1716 100.217 18.5127 97.5821 18.5127ZM96.9381 27.1C95.9622 27.1 95.2401 26.5925 95.2401 25.7728C95.2401 24.9532 96.0598 24.3481 97.0942 24.3481C97.8748 24.3481 98.6165 24.4848 99.2605 24.719V25.6557C99.0654 26.5925 98.031 27.1 96.9381 27.1Z" fill="#001209"/>
<path d="M87.7372 28.8374H90.5867V15.1953H87.7372V28.8374Z" fill="#001209"/>
<path d="M74.9313 28.8371H77.8003V24.4849H80.9619C83.8699 24.4849 86.0167 22.6113 86.0167 19.957C86.0167 17.3028 83.8699 15.4292 80.9619 15.4292H74.9313V28.8371ZM77.8003 21.8501V18.0639H80.6497C82.0744 18.0639 83.0502 18.8056 83.0502 19.957C83.0502 21.1085 82.0744 21.8501 80.6497 21.8501H77.8003Z" fill="#001209"/>
<path d="M62.5955 26.5535C61.405 26.5535 60.5268 25.8119 60.195 24.719H67.4747C67.4747 20.9132 65.6206 18.5127 62.4589 18.5127C59.5119 18.5127 57.2675 20.7181 57.2675 23.7626C57.2675 26.8658 59.6095 29.0711 62.615 29.0711C64.0983 29.0711 65.8353 28.4466 66.733 27.5098L64.918 25.6557C64.3715 26.1827 63.3957 26.5535 62.5955 26.5535ZM62.576 21.0303C63.7275 21.0303 64.4691 21.6744 64.7423 22.6697H60.234C60.6048 21.6549 61.5026 21.0303 62.576 21.0303Z" fill="#001209"/>
<path d="M52.4969 28.8374H55.3464V15.1953H52.4969V28.8374Z" fill="#001209"/>
<path d="M47.1218 18.7469V20.1131C46.4387 19.1567 45.1506 18.5127 43.7845 18.5127C41.2473 18.5127 39.3152 20.4839 39.3152 23.2942C39.3152 26.1046 41.2473 28.0953 43.7845 28.0953C45.1116 28.0953 46.3216 27.5098 47.1218 26.534V27.6464C47.1218 28.954 45.9508 29.7933 44.1163 29.7933C42.9453 29.7933 41.7743 29.4224 41.1107 28.8369L40.1154 30.8471C41.1107 31.6278 42.7891 32.1938 44.5651 32.1938C47.7463 32.1938 49.9907 30.3592 49.9907 27.7635V18.7469H47.1218ZM44.6822 25.6948C43.2575 25.6948 42.2427 24.6994 42.2427 23.2942C42.2427 21.8891 43.2575 20.9132 44.6822 20.9132C46.1069 20.9132 47.1218 21.8891 47.1218 23.2942C47.1218 24.6994 46.1069 25.6948 44.6822 25.6948Z" fill="#001209"/>
<path d="M32.4104 29.0711C35.3965 29.0711 37.8946 26.6511 37.8946 23.7822C37.8946 20.9132 35.3965 18.5127 32.4104 18.5127C29.4049 18.5127 26.8873 20.9132 26.8873 23.7822C26.8873 26.6511 29.4049 29.0711 32.4104 29.0711ZM32.4104 26.6706C30.8882 26.6706 29.6196 25.3435 29.6196 23.7822C29.6196 22.2208 30.8882 20.9132 32.4104 20.9132C33.9132 20.9132 35.1818 22.2208 35.1818 23.7822C35.1818 25.3435 33.9132 26.6706 32.4104 26.6706Z" fill="#001209"/>
<path d="M20.0411 29.0711C23.0272 29.0711 25.5253 26.6511 25.5253 23.7822C25.5253 20.9132 23.0272 18.5127 20.0411 18.5127C17.0356 18.5127 14.5179 20.9132 14.5179 23.7822C14.5179 26.6511 17.0356 29.0711 20.0411 29.0711ZM20.0411 26.6706C18.5188 26.6706 17.2503 25.3435 17.2503 23.7822C17.2503 22.2208 18.5188 20.9132 20.0411 20.9132C21.5439 20.9132 22.8125 22.2208 22.8125 23.7822C22.8125 25.3435 21.5439 26.6706 20.0411 26.6706Z" fill="#001209"/>
<path d="M6.8057 23.5484H9.92834V25.5976C9.1672 26.1441 8.2304 26.4564 7.31313 26.4564C5.02969 26.4564 3.09756 24.4657 3.09756 22.1237C3.09756 19.8012 5.02969 17.8105 7.31313 17.8105C8.54267 17.8105 9.85028 18.396 10.6505 19.3133L12.7387 17.4397C11.3921 16.0345 9.32333 15.1953 7.31313 15.1953C3.42934 15.1953 0.131042 18.357 0.131042 22.1237C0.131042 25.8904 3.42934 29.0716 7.31313 29.0716C9.32333 29.0716 11.3921 28.2324 12.7387 26.8272V21.304H6.8057V23.5484Z" fill="#001209"/>
</svg>
