<svg width="1918" height="534" viewBox="0 0 1918 534" fill="none" xmlns="http://www.w3.org/2000/svg">
<path d="M-177.605 9L3.57127 111.17C46.0634 135.132 82.6816 168.263 110.764 208.152V208.152C147.581 260.451 198.873 300.856 258.338 324.406L534.652 433.835C568.883 447.392 593.473 477.937 599.409 514.273V514.273C605.238 549.96 629.074 580.109 662.452 594.015L872.829 681.663C919.045 700.917 960.778 729.524 995.406 765.685L1099.95 874.854C1133.52 909.92 1173.8 937.893 1218.38 957.119L1603.68 1123.28C1642.07 1139.84 1677.31 1162.9 1707.85 1191.46L1910.63 1381.06" stroke="#001209" stroke-opacity="0.12" stroke-width="19"/>
<path d="M-224.605 75L-43.4285 177.17C-0.936376 201.132 35.6819 234.263 63.7639 274.152V274.152C100.582 326.451 151.873 366.856 211.338 390.406L487.652 499.835C521.883 513.392 546.473 543.937 552.409 580.273V580.273C558.238 615.96 582.074 646.109 615.452 660.015L825.829 747.663C872.045 766.917 913.779 795.524 948.406 831.685L1052.95 940.854C1086.52 975.92 1126.8 1003.89 1171.38 1023.12L1556.68 1189.28C1595.07 1205.84 1630.31 1228.9 1660.85 1257.46L1863.63 1447.06" stroke="#001209" stroke-opacity="0.48" stroke-width="19"/>
<path d="M-271.605 141L-90.4286 243.17C-47.9365 267.132 -11.3183 300.263 16.7637 340.152V340.152C53.5815 392.451 104.873 432.856 164.338 456.406L440.652 565.835C474.883 579.392 499.473 609.937 505.409 646.273V646.273C511.238 681.96 535.074 712.109 568.452 726.015L778.829 813.663C825.045 832.917 866.779 861.524 901.406 897.685L1005.95 1006.85C1039.52 1041.92 1079.8 1069.89 1124.38 1089.12L1509.68 1255.28C1548.07 1271.84 1583.31 1294.9 1613.85 1323.46L1816.63 1513.06" stroke="#001209" stroke-opacity="0.12" stroke-width="19"/>
<path d="M-318.605 207L-137.428 309.17C-94.9364 333.132 -58.3181 366.263 -30.2361 406.152V406.152C6.58159 458.451 57.873 498.856 117.338 522.406L393.652 631.835C427.883 645.392 452.473 675.937 458.409 712.273V712.273C464.238 747.96 488.074 778.109 521.452 792.015L731.829 879.663C778.045 898.917 819.779 927.524 854.406 963.685L958.946 1072.85C992.524 1107.92 1032.8 1135.89 1077.38 1155.12L1462.68 1321.28C1501.07 1337.84 1536.31 1360.9 1566.85 1389.46L1769.63 1579.06" stroke="#001209" stroke-opacity="0.48" stroke-width="19"/>
<path d="M-365.605 273L-184.428 375.17C-141.936 399.132 -105.318 432.263 -77.236 472.152V472.152C-40.4183 524.451 10.8732 564.856 70.3379 588.406L346.652 697.835C380.883 711.392 405.474 741.937 411.409 778.273V778.273C417.238 813.96 441.074 844.109 474.452 858.015L684.83 945.663C731.046 964.917 772.779 993.524 807.406 1029.68L911.946 1138.85C945.525 1173.92 985.796 1201.89 1030.38 1221.12L1415.68 1387.28C1454.07 1403.84 1489.31 1426.9 1519.85 1455.46L1722.63 1645.06" stroke="#001209" stroke-opacity="0.12" stroke-width="19"/>
<path d="M-412.605 339L-231.428 441.17C-188.936 465.132 -152.318 498.263 -124.236 538.152V538.152C-87.4183 590.451 -36.1268 630.856 23.3379 654.406L299.652 763.835C333.883 777.392 358.474 807.937 364.409 844.273V844.273C370.238 879.96 394.074 910.109 427.452 924.015L637.83 1011.66C684.046 1030.92 725.779 1059.52 760.406 1095.68L864.946 1204.85C898.525 1239.92 938.796 1267.89 983.377 1287.12L1368.68 1453.28C1407.07 1469.84 1442.31 1492.9 1472.85 1521.46L1675.63 1711.06" stroke="#001209" stroke-opacity="0.48" stroke-width="19"/>
<path d="M-459.605 405L-278.428 507.17C-235.936 531.132 -199.318 564.263 -171.236 604.152V604.152C-134.418 656.451 -83.1267 696.856 -23.662 720.406L252.652 829.835C286.883 843.392 311.474 873.937 317.409 910.273V910.273C323.238 945.96 347.074 976.109 380.453 990.015L590.83 1077.66C637.046 1096.92 678.779 1125.52 713.406 1161.68L817.946 1270.85C851.525 1305.92 891.796 1333.89 936.377 1353.12L1321.68 1519.28C1360.07 1535.84 1395.31 1558.9 1425.85 1587.46L1628.63 1777.06" stroke="#001209" stroke-opacity="0.12" stroke-width="19"/>
<path d="M-506.605 471L-325.428 573.17C-282.936 597.132 -246.318 630.263 -218.236 670.152V670.152C-181.418 722.451 -130.126 762.856 -70.6617 786.406L205.652 895.835C239.883 909.392 264.474 939.937 270.409 976.273V976.273C276.238 1011.96 300.075 1042.11 333.453 1056.02L543.83 1143.66C590.046 1162.92 631.779 1191.52 666.406 1227.68L770.947 1336.85C804.525 1371.92 844.796 1399.89 889.377 1419.12L1274.68 1585.28C1313.07 1601.84 1348.32 1624.9 1378.85 1653.46L1581.63 1843.06" stroke="#001209" stroke-opacity="0.48" stroke-width="19"/>
<path d="M-553.605 537L-372.428 639.17C-329.936 663.132 -293.318 696.263 -265.236 736.152V736.152C-228.418 788.451 -177.126 828.856 -117.662 852.406L158.652 961.835C192.883 975.392 217.474 1005.94 223.409 1042.27V1042.27C229.238 1077.96 253.075 1108.11 286.453 1122.02L496.83 1209.66C543.046 1228.92 584.779 1257.52 619.406 1293.68L723.947 1402.85C757.525 1437.92 797.796 1465.89 842.377 1485.12L1227.68 1651.28C1266.07 1667.84 1301.32 1690.9 1331.85 1719.46L1534.63 1909.06" stroke="#001209" stroke-opacity="0.12" stroke-width="19"/>
</svg>
