<svg width="593" height="577" viewBox="0 0 593 577" fill="none" xmlns="http://www.w3.org/2000/svg">
<path d="M381.395 -719L562.571 -616.83C605.063 -592.868 641.682 -559.737 669.764 -519.848V-519.848C706.581 -467.549 757.873 -427.144 817.338 -403.594L1093.65 -294.165C1127.88 -280.608 1152.47 -250.063 1158.41 -213.727V-213.727C1164.24 -178.04 1188.07 -147.891 1221.45 -133.985L1431.83 -46.3374C1478.05 -27.0829 1519.78 1.52386 1554.41 37.6847L1658.95 146.854C1692.52 181.92 1732.8 209.893 1777.38 229.119L2162.68 395.285C2201.07 411.84 2236.31 434.903 2266.85 463.457L2469.63 653.057" stroke="#001209" stroke-opacity="0.12" stroke-width="19"/>
<path d="M334.395 -653L515.572 -550.83C558.064 -526.868 594.682 -493.737 622.764 -453.848V-453.848C659.582 -401.549 710.873 -361.144 770.338 -337.594L1046.65 -228.165C1080.88 -214.608 1105.47 -184.063 1111.41 -147.727V-147.727C1117.24 -112.04 1141.07 -81.8908 1174.45 -67.9848L1384.83 19.6626C1431.05 38.9171 1472.78 67.5239 1507.41 103.685L1611.95 212.854C1645.52 247.92 1685.8 275.893 1730.38 295.119L2115.68 461.285C2154.07 477.84 2189.31 500.903 2219.85 529.457L2422.63 719.057" stroke="#001209" stroke-opacity="0.48" stroke-width="19"/>
<path d="M287.395 -587L468.571 -484.83C511.064 -460.868 547.682 -427.737 575.764 -387.848V-387.848C612.581 -335.549 663.873 -295.144 723.338 -271.594L999.652 -162.165C1033.88 -148.608 1058.47 -118.063 1064.41 -81.7266V-81.7266C1070.24 -46.0405 1094.07 -15.8908 1127.45 -1.98475L1337.83 85.6626C1384.05 104.917 1425.78 133.524 1460.41 169.685L1564.95 278.854C1598.52 313.92 1638.8 341.893 1683.38 361.119L2068.68 527.285C2107.07 543.84 2142.31 566.903 2172.85 595.457L2375.63 785.057" stroke="#001209" stroke-opacity="0.12" stroke-width="19"/>
<path d="M240.395 -521L421.571 -418.83C464.064 -394.868 500.682 -361.737 528.764 -321.848V-321.848C565.582 -269.549 616.873 -229.144 676.338 -205.594L952.652 -96.1645C986.883 -82.608 1011.47 -52.0627 1017.41 -15.7266V-15.7266C1023.24 19.9595 1047.07 50.1092 1080.45 64.0152L1290.83 151.663C1337.05 170.917 1378.78 199.524 1413.41 235.685L1517.95 344.854C1551.52 379.92 1591.8 407.893 1636.38 427.119L2021.68 593.285C2060.07 609.84 2095.31 632.903 2125.85 661.457L2328.63 851.057" stroke="#001209" stroke-opacity="0.48" stroke-width="19"/>
<path d="M193.395 -455L374.572 -352.83C417.064 -328.868 453.682 -295.737 481.764 -255.848V-255.848C518.582 -203.549 569.873 -163.144 629.338 -139.594L905.652 -30.1645C939.883 -16.608 964.474 13.9373 970.409 50.2734V50.2734C976.238 85.9595 1000.07 116.109 1033.45 130.015L1243.83 217.663C1290.05 236.917 1331.78 265.524 1366.41 301.685L1470.95 410.854C1504.52 445.92 1544.8 473.893 1589.38 493.119L1974.68 659.285C2013.07 675.84 2048.31 698.903 2078.85 727.457L2281.63 917.057" stroke="#001209" stroke-opacity="0.12" stroke-width="19"/>
<path d="M146.395 -389L327.572 -286.83C370.064 -262.868 406.682 -229.737 434.764 -189.848V-189.848C471.582 -137.549 522.873 -97.1436 582.338 -73.5937L858.652 35.8355C892.883 49.392 917.474 79.9373 923.409 116.273V116.273C929.238 151.96 953.074 182.109 986.452 196.015L1196.83 283.663C1243.05 302.917 1284.78 331.524 1319.41 367.685L1423.95 476.854C1457.52 511.92 1497.8 539.893 1542.38 559.119L1927.68 725.285C1966.07 741.84 2001.31 764.903 2031.85 793.457L2234.63 983.057" stroke="#001209" stroke-opacity="0.48" stroke-width="19"/>
<path d="M99.395 -323L280.572 -220.83C323.064 -196.868 359.682 -163.737 387.764 -123.848V-123.848C424.582 -71.5494 475.873 -31.1436 535.338 -7.5937L811.652 101.835C845.883 115.392 870.474 145.937 876.409 182.273V182.273C882.238 217.96 906.074 248.109 939.452 262.015L1149.83 349.663C1196.05 368.917 1237.78 397.524 1272.41 433.685L1376.95 542.854C1410.52 577.92 1450.8 605.893 1495.38 625.119L1880.68 791.285C1919.07 807.84 1954.31 830.903 1984.85 859.457L2187.63 1049.06" stroke="#001209" stroke-opacity="0.12" stroke-width="19"/>
<path d="M52.3952 -257L233.572 -154.83C276.064 -130.868 312.682 -97.7372 340.764 -57.8477V-57.8477C377.582 -5.5494 428.874 34.8564 488.338 58.4063L764.652 167.835C798.883 181.392 823.474 211.937 829.409 248.273V248.273C835.238 283.96 859.075 314.109 892.453 328.015L1102.83 415.663C1149.05 434.917 1190.78 463.524 1225.41 499.685L1329.95 608.854C1363.52 643.92 1403.8 671.893 1448.38 691.119L1833.68 857.285C1872.07 873.84 1907.32 896.903 1937.85 925.457L2140.63 1115.06" stroke="#001209" stroke-opacity="0.48" stroke-width="19"/>
<path d="M5.39529 -191L186.572 -88.8299C229.064 -64.8675 265.682 -31.7372 293.764 8.1523V8.1523C330.582 60.4506 381.874 100.856 441.338 124.406L717.652 233.835C751.883 247.392 776.474 277.937 782.409 314.273V314.273C788.238 349.96 812.075 380.109 845.453 394.015L1055.83 481.663C1102.05 500.917 1143.78 529.524 1178.41 565.685L1282.95 674.854C1316.52 709.92 1356.8 737.893 1401.38 757.119L1786.68 923.285C1825.07 939.84 1860.32 962.903 1890.85 991.457L2093.63 1181.06" stroke="#001209" stroke-opacity="0.12" stroke-width="19"/>
</svg>
