<svg width="135" height="37" viewBox="0 0 135 37" fill="none" xmlns="http://www.w3.org/2000/svg">
<g clip-path="url(#clip0_443_3)">
<path d="M28.8059 0C27.4286 0.00161896 26.1084 0.547488 25.1346 1.51787C24.1608 2.48825 23.613 3.80389 23.6113 5.17621C23.6097 6.29768 23.9774 7.38871 24.6579 8.28194C24.6579 8.28194 24.7994 8.46781 24.8226 8.49463L28.8059 13.1758L32.7908 8.49229C32.8117 8.46736 32.9539 8.28194 32.9539 8.28194L32.9544 8.28054C33.6344 7.38768 34.0019 6.29716 34.0002 5.17621C33.9986 3.80389 33.4507 2.48825 32.4769 1.51787C31.5031 0.547488 30.1829 0.00161896 28.8059 0ZM28.8059 7.05847C28.4321 7.05847 28.067 6.94807 27.7564 6.74126C27.4456 6.53444 27.2036 6.24047 27.0606 5.89653C26.9177 5.55259 26.8803 5.17413 26.9531 4.80901C27.0262 4.44388 27.206 4.10849 27.4701 3.84524C27.7344 3.58202 28.0708 3.40274 28.4372 3.33011C28.8037 3.25749 29.1835 3.29478 29.5285 3.43724C29.8738 3.57969 30.1688 3.82095 30.3764 4.13049C30.5839 4.44002 30.6946 4.80395 30.6946 5.17621C30.6941 5.67523 30.4949 6.15362 30.1407 6.50648C29.7866 6.85934 29.3065 7.05785 28.8059 7.05847Z" fill="#28A265"/>
<path d="M4.72222 36.2336C7.33022 36.2336 9.44443 34.1268 9.44443 31.5279C9.44443 28.9291 7.33022 26.8223 4.72222 26.8223C2.11421 26.8223 0 28.9291 0 31.5279C0 34.1268 2.11421 36.2336 4.72222 36.2336Z" fill="#28A265"/>
<path fill-rule="evenodd" clip-rule="evenodd" d="M10.971 8.08789C8.34329 8.08789 6.22217 10.2091 6.22217 12.8148V23.2571C6.22217 24.0855 5.5506 24.7571 4.72217 24.7571C3.89374 24.7571 3.22217 24.0855 3.22217 23.2571V12.8148C3.22217 8.54236 6.69639 5.08789 10.971 5.08789C15.204 5.08789 18.6606 8.47796 18.719 12.7083L18.9275 27.7982C18.9589 30.0734 20.8203 31.9102 23.1163 31.9102C25.4348 31.9102 27.3056 30.0385 27.3056 27.7409V16.7409C27.3056 15.9125 27.9772 15.2409 28.8056 15.2409C29.634 15.2409 30.3056 15.9125 30.3056 16.7409V27.7409C30.3056 31.7054 27.0816 34.9102 23.1163 34.9102C19.1893 34.9102 15.982 31.7651 15.9278 27.8396L15.7193 12.7498C15.6837 10.1697 13.5731 8.08789 10.971 8.08789Z" fill="#001209"/>
</g>
<path d="M126.415 27.5051C125.231 27.5051 124.135 27.2891 123.127 26.8571C122.135 26.4251 121.263 25.8251 120.511 25.0571C119.775 24.2731 119.199 23.3611 118.783 22.3211C118.383 21.2651 118.183 20.1131 118.183 18.8651C118.183 17.6171 118.383 16.4731 118.783 15.4331C119.199 14.3771 119.775 13.4651 120.511 12.6971C121.263 11.9131 122.135 11.3051 123.127 10.8731C124.135 10.4411 125.231 10.2251 126.415 10.2251C127.599 10.2251 128.687 10.4411 129.679 10.8731C130.687 11.3051 131.559 11.9131 132.295 12.6971C133.047 13.4811 133.623 14.4011 134.023 15.4571C134.439 16.4971 134.647 17.6331 134.647 18.8651C134.647 20.0971 134.439 21.2411 134.023 22.2971C133.623 23.3371 133.047 24.2491 132.295 25.0331C131.559 25.8171 130.687 26.4251 129.679 26.8571C128.687 27.2891 127.599 27.5051 126.415 27.5051ZM126.415 24.9851C127.231 24.9851 127.975 24.8331 128.647 24.5291C129.335 24.2251 129.927 23.8011 130.423 23.2571C130.919 22.6971 131.303 22.0491 131.575 21.3131C131.863 20.5611 132.007 19.7451 132.007 18.8651C132.007 17.9851 131.863 17.1771 131.575 16.4411C131.303 15.6891 130.919 15.0411 130.423 14.4971C129.927 13.9371 129.335 13.5051 128.647 13.2011C127.975 12.8971 127.231 12.7451 126.415 12.7451C125.599 12.7451 124.847 12.8971 124.159 13.2011C123.487 13.5051 122.895 13.9291 122.383 14.4731C121.887 15.0171 121.503 15.6651 121.231 16.4171C120.959 17.1531 120.823 17.9691 120.823 18.8651C120.823 20.0491 121.063 21.1051 121.543 22.0331C122.023 22.9451 122.679 23.6651 123.511 24.1931C124.359 24.7211 125.327 24.9851 126.415 24.9851Z" fill="#28A265"/>
<path d="M108.52 27.5053C107.304 27.5053 106.168 27.2893 105.112 26.8573C104.056 26.4093 103.128 25.7933 102.328 25.0093C101.528 24.2253 100.904 23.3133 100.456 22.2733C100.024 21.2173 99.8076 20.0813 99.8076 18.8653C99.8076 17.6653 100.024 16.5453 100.456 15.5053C100.904 14.4653 101.52 13.5613 102.304 12.7933C103.104 12.0093 104.032 11.4013 105.088 10.9693C106.144 10.5373 107.28 10.3213 108.496 10.3213C109.344 10.3213 110.168 10.4413 110.968 10.6813C111.784 10.9213 112.52 11.2573 113.176 11.6893C113.832 12.1213 114.368 12.6173 114.784 13.1773L113.104 14.9293C112.384 14.2413 111.632 13.7213 110.848 13.3693C110.08 13.0173 109.296 12.8413 108.496 12.8413C107.632 12.8413 106.832 12.9933 106.096 13.2973C105.376 13.6013 104.736 14.0253 104.176 14.5693C103.632 15.1133 103.208 15.7533 102.904 16.4893C102.6 17.2093 102.448 18.0013 102.448 18.8653C102.448 19.6973 102.608 20.4893 102.928 21.2413C103.248 21.9773 103.688 22.6253 104.248 23.1853C104.824 23.7453 105.48 24.1853 106.216 24.5053C106.968 24.8253 107.76 24.9853 108.592 24.9853C109.216 24.9853 109.808 24.8973 110.368 24.7213C110.928 24.5293 111.424 24.2653 111.856 23.9293C112.288 23.5933 112.624 23.2093 112.864 22.7773C113.104 22.3293 113.224 21.8573 113.224 21.3613V20.8813L113.584 21.2173H108.448V18.6493H115.888C115.92 18.8253 115.944 19.0013 115.96 19.1773C115.976 19.3373 115.984 19.4973 115.984 19.6573C116 19.8013 116.008 19.9453 116.008 20.0893C116.008 21.1933 115.816 22.2013 115.432 23.1133C115.048 24.0093 114.512 24.7853 113.824 25.4413C113.152 26.0973 112.36 26.6093 111.448 26.9773C110.552 27.3293 109.576 27.5053 108.52 27.5053Z" fill="#28A265"/>
<path d="M94.1123 27.2652V14.6652H96.5843V27.2652H94.1123ZM95.3122 11.8812C94.7842 11.8812 94.3762 11.7452 94.0882 11.4732C93.8002 11.2012 93.6562 10.8172 93.6562 10.3212C93.6562 9.85723 93.8002 9.48123 94.0882 9.19323C94.3922 8.90523 94.8002 8.76123 95.3122 8.76123C95.8402 8.76123 96.2483 8.89723 96.5363 9.16923C96.8243 9.44123 96.9683 9.82523 96.9683 10.3212C96.9683 10.7852 96.8162 11.1612 96.5122 11.4492C96.2242 11.7372 95.8242 11.8812 95.3122 11.8812Z" fill="#001209"/>
<path d="M84.0741 27.265L78.7461 14.665H81.4101L85.2501 24.097L84.7941 24.313L88.8981 14.665H91.4421L85.8501 27.265H84.0741Z" fill="#001209"/>
<path d="M74.8711 27.2654V19.0574C74.8711 18.3534 74.6151 17.7854 74.1031 17.3534C73.6071 16.9054 72.9751 16.6814 72.2071 16.6814C71.5031 16.6814 70.8631 16.8254 70.2871 17.1134C69.7271 17.4014 69.2151 17.8414 68.7511 18.4334L67.1431 16.8254C67.8951 16.0094 68.7031 15.4014 69.5671 15.0014C70.4471 14.6014 71.3911 14.4014 72.3991 14.4014C73.3591 14.4014 74.1911 14.5614 74.8951 14.8814C75.5991 15.2014 76.1431 15.6734 76.5271 16.2974C76.9111 16.9054 77.1031 17.6494 77.1031 18.5294V27.2654H74.8711ZM71.1031 27.5054C70.2871 27.5054 69.5591 27.3454 68.9191 27.0254C68.2791 26.7054 67.7671 26.2654 67.3831 25.7054C67.0151 25.1294 66.8311 24.4574 66.8311 23.6894C66.8311 23.0174 66.9511 22.4254 67.1911 21.9134C67.4311 21.4014 67.7831 20.9774 68.2471 20.6414C68.7271 20.3054 69.3191 20.0494 70.0231 19.8734C70.7431 19.6974 71.5671 19.6094 72.4951 19.6094H75.9991L75.7831 21.5774H72.1831C71.7031 21.5774 71.2711 21.6254 70.8871 21.7214C70.5191 21.8014 70.1991 21.9374 69.9271 22.1294C69.6711 22.3054 69.4791 22.5214 69.3511 22.7774C69.2231 23.0174 69.1591 23.3054 69.1591 23.6414C69.1591 23.9934 69.2471 24.3054 69.4231 24.5774C69.5991 24.8334 69.8391 25.0334 70.1431 25.1774C70.4471 25.3214 70.7991 25.3934 71.1991 25.3934C71.7751 25.3934 72.3191 25.2974 72.8311 25.1054C73.3591 24.8974 73.8231 24.6174 74.2231 24.2654C74.6391 23.9134 74.9591 23.5214 75.1831 23.0894L75.7591 24.6974C75.4231 25.2574 75.0071 25.7454 74.5111 26.1614C74.0151 26.5774 73.4791 26.9054 72.9031 27.1454C72.3271 27.3854 71.7271 27.5054 71.1031 27.5054Z" fill="#001209"/>
<path d="M49 27.2653V10.4653H51.328L61.6 24.2173L61.216 24.4333C61.104 23.7773 61.008 23.0173 60.928 22.1533C60.864 21.2893 60.816 20.3373 60.784 19.2973C60.752 18.2573 60.736 17.1533 60.736 15.9853V10.4653H63.328V27.2653H60.952L50.848 14.0173L51.112 13.6813C51.224 14.8973 51.312 15.8973 51.376 16.6813C51.44 17.4493 51.488 18.0653 51.52 18.5293C51.552 18.9933 51.568 19.3613 51.568 19.6333C51.584 19.8893 51.592 20.1053 51.592 20.2813V27.2653H49Z" fill="#001209"/>
<defs>
<clipPath id="clip0_443_3">
<rect width="34" height="36.2667" fill="white"/>
</clipPath>
</defs>
</svg>
