<svg width="196" height="48" viewBox="0 0 196 48" fill="none" xmlns="http://www.w3.org/2000/svg">
<g clip-path="url(#clip0_1536_1707)">
<path d="M38.1256 0C36.3028 0.00214275 34.5554 0.724617 33.2666 2.00894C31.9778 3.29327 31.2527 5.03457 31.2505 6.85086C31.2483 8.33517 31.735 9.77918 32.6356 10.9614C32.6356 10.9614 32.8229 11.2074 32.8537 11.2429L38.1256 17.4386L43.3998 11.2398C43.4274 11.2068 43.6156 10.9614 43.6156 10.9614L43.6163 10.9595C44.5163 9.77782 45.0027 8.33447 45.0005 6.85086C44.9983 5.03457 44.2732 3.29327 42.9844 2.00894C41.6955 0.724617 39.9481 0.00214275 38.1256 0ZM38.1256 9.34209C37.631 9.34209 37.1477 9.19598 36.7367 8.92225C36.3253 8.64852 36.0049 8.25944 35.8157 7.80423C35.6266 7.34902 35.5771 6.84811 35.6735 6.36486C35.7701 5.88161 36.0081 5.4377 36.3576 5.08929C36.7075 4.74091 37.1528 4.50363 37.6376 4.4075C38.1228 4.31138 38.6254 4.36074 39.082 4.54929C39.539 4.73782 39.9294 5.05715 40.2042 5.46682C40.4789 5.87649 40.6254 6.35817 40.6254 6.85086C40.6247 7.51133 40.3611 8.14449 39.8924 8.61151C39.4237 9.07853 38.7883 9.34127 38.1256 9.34209Z" fill="#00BD5E"/>
<path d="M6.24999 47.9561C9.70177 47.9561 12.5 45.1677 12.5 41.7281C12.5 38.2884 9.70177 35.5 6.24999 35.5C2.79822 35.5 0 38.2884 0 41.7281C0 45.1677 2.79822 47.9561 6.24999 47.9561Z" fill="#00BD5E"/>
<path fill-rule="evenodd" clip-rule="evenodd" d="M14.5209 10.7045C11.0431 10.7045 8.23573 13.512 8.23573 16.9606V30.7813C8.23573 31.8778 7.34688 32.7666 6.25043 32.7666C5.15398 32.7666 4.26514 31.8778 4.26514 30.7813V16.9606C4.26514 11.306 8.86337 6.73389 14.5209 6.73389C20.1235 6.73389 24.6983 11.2207 24.7757 16.8198L25.0516 36.7916C25.0932 39.8029 27.5567 42.234 30.5956 42.234C33.6642 42.234 36.1403 39.7568 36.1403 36.7158V22.157C36.1403 21.0606 37.0291 20.1717 38.1255 20.1717C39.222 20.1717 40.1108 21.0606 40.1108 22.157V36.7158C40.1108 41.963 35.8438 46.2046 30.5956 46.2046C25.3981 46.2046 21.1531 42.0419 21.0814 36.8465L20.8055 16.8746C20.7583 13.4598 17.9648 10.7045 14.5209 10.7045Z" fill="white"/>
</g>
<path d="M182.394 38.5065C179.744 38.5065 177.395 37.916 175.348 36.735C173.327 35.5277 171.739 33.8612 170.584 31.7354C169.429 29.5833 168.852 27.09 168.852 24.2556C168.852 21.4474 169.429 18.9804 170.584 16.8545C171.739 14.7025 173.327 13.0228 175.348 11.8155C177.395 10.6083 179.744 10.0046 182.394 10.0046C185.098 10.0046 187.473 10.6083 189.52 11.8155C191.567 13.0228 193.155 14.7025 194.283 16.8545C195.412 18.9804 195.976 21.4474 195.976 24.2556C195.976 27.09 195.412 29.5833 194.283 31.7354C193.155 33.8612 191.567 35.5277 189.52 36.735C187.473 37.916 185.098 38.5065 182.394 38.5065ZM182.434 34.2549C184.192 34.2549 185.727 33.8612 187.04 33.0739C188.352 32.2603 189.362 31.1055 190.071 29.6095C190.78 28.1136 191.134 26.3289 191.134 24.2556C191.134 22.1822 190.78 20.3976 190.071 18.9016C189.362 17.4057 188.352 16.264 187.04 15.4767C185.727 14.6631 184.192 14.2563 182.434 14.2563C180.675 14.2563 179.14 14.6631 177.828 15.4767C176.516 16.264 175.492 17.4057 174.757 18.9016C174.049 20.3976 173.694 22.1822 173.694 24.2556C173.694 26.3289 174.049 28.1136 174.757 29.6095C175.492 31.1055 176.516 32.2603 177.828 33.0739C179.14 33.8612 180.675 34.2549 182.434 34.2549Z" fill="#00BD5E"/>
<path d="M151.433 38.5065C148.834 38.5065 146.551 37.916 144.583 36.735C142.641 35.554 141.132 33.9137 140.055 31.8141C138.979 29.6883 138.441 27.2081 138.441 24.3737C138.441 21.5655 138.993 19.0854 140.095 16.9333C141.197 14.755 142.772 13.0622 144.819 11.8549C146.892 10.6214 149.346 10.0046 152.181 10.0046C155.382 10.0046 158.033 10.7789 160.133 12.3273C162.259 13.8495 163.636 15.9753 164.266 18.7048H158.952C158.558 17.3401 157.784 16.2772 156.629 15.5161C155.474 14.755 153.978 14.3744 152.141 14.3744C150.278 14.3744 148.677 14.7812 147.338 15.5948C146.026 16.3821 145.016 17.5369 144.307 19.0591C143.625 20.5551 143.284 22.3397 143.284 24.4131C143.284 26.4864 143.625 28.271 144.307 29.767C145.016 31.263 146.013 32.4046 147.299 33.192C148.585 33.9531 150.094 34.3336 151.826 34.3336C154.398 34.3336 156.34 33.6119 157.653 32.1684C158.965 30.7249 159.739 28.8484 159.975 26.5389H152.85V22.9565H164.739V38.0341H160.408L160.015 34.2549C159.411 35.1472 158.716 35.9214 157.928 36.5775C157.141 37.2074 156.209 37.6929 155.133 38.0341C154.083 38.3491 152.85 38.5065 151.433 38.5065Z" fill="#00BD5E"/>
<path d="M129.083 38.0342V18.1931H133.808V38.0342H129.083ZM131.446 15.0437C130.579 15.0437 129.858 14.7813 129.28 14.2564C128.729 13.7052 128.454 13.036 128.454 12.2486C128.454 11.435 128.729 10.7789 129.28 10.2803C129.858 9.75537 130.579 9.49292 131.446 9.49292C132.312 9.49292 133.02 9.75537 133.571 10.2803C134.149 10.7789 134.437 11.435 134.437 12.2486C134.437 13.036 134.149 13.7052 133.571 14.2564C133.02 14.7813 132.312 15.0437 131.446 15.0437Z" fill="white"/>
<path d="M112.522 38.0345L105.2 18.1934H110.16L115.396 33.5466L120.632 18.1934H125.513L118.191 38.0345H112.522Z" fill="white"/>
<path d="M91.7143 38.5071C90.0871 38.5071 88.7355 38.2315 87.6594 37.6804C86.5834 37.1293 85.7829 36.3944 85.258 35.4758C84.7332 34.5573 84.4707 33.56 84.4707 32.4839C84.4707 31.2242 84.7856 30.135 85.4155 29.2164C86.0716 28.2979 87.0296 27.5893 88.2893 27.0906C89.5491 26.5657 91.0975 26.3033 92.9347 26.3033H97.9343C97.9343 25.2535 97.79 24.3874 97.5013 23.705C97.2126 22.9964 96.7664 22.4715 96.1628 22.1303C95.5591 21.7891 94.7849 21.6186 93.8401 21.6186C92.7641 21.6186 91.8455 21.8679 91.0844 22.3665C90.3233 22.8389 89.8509 23.5738 89.6672 24.5711H85.0218C85.1793 23.1539 85.6517 21.9466 86.4391 20.9493C87.2264 19.9258 88.2631 19.1384 89.5491 18.5873C90.8613 18.0099 92.2917 17.7212 93.8401 17.7212C95.7035 17.7212 97.2913 18.0493 98.6035 18.7054C99.9158 19.3352 100.913 20.2538 101.595 21.4611C102.304 22.6421 102.658 24.0724 102.658 25.7521V38.0347H98.6429L98.1705 34.8459C97.9081 35.3708 97.5669 35.8564 97.147 36.3025C96.7533 36.7487 96.294 37.1424 95.7691 37.4836C95.2442 37.7985 94.6406 38.0478 93.9582 38.2315C93.3021 38.4152 92.5541 38.5071 91.7143 38.5071ZM92.7772 34.7672C93.5383 34.7672 94.2075 34.636 94.7849 34.3735C95.3886 34.0848 95.9003 33.6912 96.3202 33.1925C96.7664 32.6676 97.1076 32.0902 97.3438 31.4604C97.58 30.8305 97.7375 30.1612 97.8162 29.4526V29.3739H93.4464C92.5279 29.3739 91.7668 29.492 91.1631 29.7282C90.5595 29.9382 90.1265 30.2531 89.864 30.673C89.6016 31.0929 89.4703 31.5785 89.4703 32.1296C89.4703 32.6807 89.6016 33.1532 89.864 33.5468C90.1265 33.9405 90.507 34.2423 91.0057 34.4523C91.5043 34.6622 92.0948 34.7672 92.7772 34.7672Z" fill="white"/>
<path d="M57 38.0344V10.4773H61.7241L74.9908 30.3971V10.4773H79.7149V38.0344H74.9908L61.7241 18.1539V38.0344H57Z" fill="white"/>
<defs>
<clipPath id="clip0_1536_1707">
<rect width="45" height="48" fill="white"/>
</clipPath>
</defs>
</svg>
