<svg width="32" height="32" viewBox="0 0 32 32" fill="none" xmlns="http://www.w3.org/2000/svg">
<path d="M26.6667 5.33337H5.33334C4.62609 5.33337 3.94782 5.61433 3.44772 6.11442C2.94762 6.61452 2.66667 7.2928 2.66667 8.00004V24C2.66667 24.7073 2.94762 25.3856 3.44772 25.8857C3.94782 26.3858 4.62609 26.6667 5.33334 26.6667H26.6667C27.3739 26.6667 28.0522 26.3858 28.5523 25.8857C29.0524 25.3856 29.3333 24.7073 29.3333 24V8.00004C29.3333 7.2928 29.0524 6.61452 28.5523 6.11442C28.0522 5.61433 27.3739 5.33337 26.6667 5.33337ZM26.6667 10.9814L16 17.4907L5.33334 10.9814V8.00004H26.6667V10.9814Z" fill="#28A265"/>
</svg>
