<svg width="1628" height="1190" viewBox="0 0 1628 1190" fill="none" xmlns="http://www.w3.org/2000/svg">
<g clip-path="url(#clip0_76_283)">
<path d="M1216.8 270.07C1208.69 263.288 1195.33 247.61 1190.03 243.136M1190.03 243.136C1177.76 259.479 1161.41 279.999 1139.38 300.052C1117.34 320.106 1113.01 324.776 1103.34 329.293C1081.31 341.802 1079.37 342.277 1074.14 344.222M1190.03 243.136L1135.84 203.063M1074.14 344.222C1071.75 345.664 985.069 469.389 985.069 469.389L917.736 567.309L897.991 586.934M1074.14 344.222C1066.05 321.128 1068.52 300.033 1071.45 271.199M795.585 599.481L828.759 608.779L853.502 607.669M924.763 424.124L922.491 453.623L886.937 482.384L813.378 470.018L819.166 370.334L824.201 283.609M924.763 424.124L940.174 408.808L1000.85 348.498C1005.44 343.403 1025.42 313.065 1034.22 304.057C1043.03 295.05 1046.58 289.423 1071.31 267.202M924.763 424.124L931.383 290.161M1071.31 267.202L1135.84 203.063M1071.31 267.202L1071.45 271.199M1135.84 203.063C1125.36 204.082 1075.95 200.595 1075.95 200.595M1135.84 203.063L1142.68 -0.990939M1075.95 200.595L1071.45 271.199M1075.95 200.595L1033.23 197.962M936.235 191.983L829.757 187.912M936.235 191.983L931.383 290.161M936.235 191.983L941.702 97.3137M936.235 191.983L1006.09 196.289M829.757 187.912L824.201 283.609M829.757 187.912L678.583 183.178M829.757 187.912L835.73 90.8621M931.383 290.161L824.201 283.609M824.201 283.609L720.876 282.836L678.583 183.178M678.583 183.178L702.208 81.7345L835.73 90.8621M835.73 90.8621L941.702 97.3137M835.73 90.8621L835.562 -9.47744M941.702 97.3137L1011.13 97.8182M941.702 97.3137L934.358 0.34908M1011.13 97.8182L1006.09 196.289M1011.13 97.8182L1030.14 98.6469M1006.09 196.289L1033.23 197.962M1033.23 197.962L1030.14 98.6469M1030.14 98.6469L1029.43 3.5419M1029.43 3.5419L934.358 0.34908M1029.43 3.5419L1142.68 -0.990939M934.358 0.34908L835.562 -9.47744M835.562 -9.47744L809.397 -8.83363M1142.68 -0.990939L1150.3 -79.017L1243.06 -80.1021L1239.06 10.2906M1221.55 270.04C1185.81 306.623 1167.98 324.247 1138.72 352.367L1029.6 520.937L956.601 621.706L906.123 621.121M906.123 621.121L897.991 586.934M906.123 621.121L878.246 606.558L897.991 586.934M1173.55 169.728L1332.51 68.6447L1332.66 18.7111L1239.06 10.2906M1204.4 7.17189L1239.06 10.2906" stroke="url(#paint0_linear_76_283)" stroke-opacity="0.3" stroke-width="5"/>
<path d="M917.167 769.843C911.983 779.051 899.017 795.061 895.59 801.092M895.59 801.092C913.901 810.158 937.068 822.475 960.817 840.465C984.565 858.454 989.949 861.855 996.16 870.537C1012.49 889.903 1013.32 891.731 1016.18 896.507M895.59 801.092L866.115 861.701M1016.18 896.507C1018.04 898.599 1155.54 961.161 1155.54 961.161L1264.14 1009.43L1287.04 1025.25M1016.18 896.507C994.962 908.696 973.771 910.131 944.887 912.523M1318.13 1123.62L1321.19 1089.31L1315.57 1065.19M1122.08 1028.74L1151.5 1025.57L1186.29 1055.25L1187.6 1129.83L1088.54 1142.4L1002.36 1153.32M1122.08 1028.74L1104.21 1016.39L1033.81 967.778C1027.96 964.196 994.473 950.112 984.006 943.106C973.539 936.101 967.357 933.637 940.984 913.399M1122.08 1028.74L989.174 1046.75M940.984 913.399L866.115 861.701M940.984 913.399L944.887 912.523M866.115 861.701C869.034 871.813 874.654 921.032 874.654 921.032M866.115 861.701L664.258 892.337M874.654 921.032L944.887 912.523M874.654 921.032L879.886 963.507M891.767 1059.96L907.26 1165.38M891.767 1059.96L989.174 1046.75M891.767 1059.96L797.697 1071.92M891.767 1059.96L883.21 990.496M907.26 1165.38L1002.36 1153.32M907.26 1165.38L930.283 1314.87M907.26 1165.38L810.756 1177.28M989.174 1046.75L1002.36 1153.32M1002.36 1153.32L1020.51 1255.04L930.283 1314.87M930.283 1314.87L826.229 1310.22L810.756 1177.28M810.756 1177.28L797.697 1071.92M810.756 1177.28L712.143 1195.81M797.697 1071.92L785.481 1003.57M797.697 1071.92L703.716 1096.89M785.481 1003.57L883.21 990.496M785.481 1003.57L782.815 984.727M883.21 990.496L879.886 963.507M879.886 963.507L782.815 984.727M782.815 984.727L689.448 1002.84M689.448 1002.84L703.716 1096.89M689.448 1002.84L664.258 892.337M703.716 1096.89L712.143 1195.81M712.143 1195.81L717.567 1221.42M664.258 892.337L586.155 899.128L568.104 808.13L657.702 795.513M916.266 765.173C958.775 793.616 979.365 807.916 1012.37 831.532L1198.07 907.943L1312.9 948.373L1319.16 1010.99M1319.16 1010.99L1287.04 1025.25M1319.16 1010.99L1309.95 1041.06L1287.04 1025.25M826.439 830.733L697.961 692.964L648.844 701.958L657.702 795.513M660.982 830.163L657.702 795.513" stroke="url(#paint1_linear_76_283)" stroke-opacity="0.3" stroke-width="5"/>
<path d="M1203.46 258.615L1159.79 298.315M1138.96 300.449L1119.34 286.325M1078.2 339.356L1119.34 286.325M1040.39 386.545L1065.43 401.073L1018.87 451.616L961.311 434.666L1044.4 324.016M1053.28 202.707L1049.6 232.726L1071.32 251.012L969 346.817M1091.02 298.48L1094.46 297.006M1119.34 286.325L1094.46 297.006M1165.05 229.948L1132.41 264.62L1086.4 280.985L1094.46 297.006M1098.7 197.597L1096.86 123.412L1064.77 125.99L1062.02 195.184M1047 190.219L1049.4 147.283M972.687 312.101L933.087 310.112M972.687 312.101L965.313 381.534M972.687 312.101L977.129 252.489M1051.24 219.384L971.201 213.741M1012.94 238.649L932.902 233.005M1144.6 218.327L1128.8 236.704M895.975 476.919L896.309 442.324M866.046 336.531L897.311 338.54L896.643 407.729M866.046 336.531L863.728 412.81M866.046 336.531C855.118 298.212 838.415 315.919 845.152 313.657M866.046 336.531L738.366 334.229M863.728 412.81L896.643 407.729M863.728 412.81L838.511 412.453M896.643 407.729L896.309 442.324M896.309 442.324L835.051 447.056L838.511 412.453M838.511 412.453L840.695 367.017L865.145 366.195M886.546 194.771C885.553 197.775 883.44 232.151 882.508 248.964L831.241 248.67L831.979 208.656L909.505 209.304M1011.91 157.793L982.737 157.863M982.737 157.863L993.626 179.51L961.529 177.92L963.054 118.731L982.737 157.863ZM982.737 157.863L988.066 120.755M914.455 188.036L914.729 128.433M914.729 128.433L868.882 128.543L900.216 159.728M914.729 128.433L919.271 110.5L857.993 106.896L859.778 156.074L900.216 159.728M914.729 128.433L900.216 159.728M914.729 128.433L935.982 127.132M900.216 159.728L937.738 163.806C976.997 157.87 1002.74 166.632 1027.79 114.699M1135.04 56.2165C1116.23 51.1726 1104.29 50.2277 1077.52 55.9376L1083.29 27.9985C1083.76 17.6172 1085.16 12.3024 1138.3 25.3659L1135.04 56.2165ZM1135.04 56.2165C1055.51 79.9486 1034.6 92.6921 1027.79 114.699M1027.79 114.699C1001.95 93.1882 994.054 68.3637 993.336 58.6402L1048.76 54.7562L1050.82 44.3314L999.144 47.3728L994.039 4.0384L1032.58 -87.332L1102.66 -62.0756M1102.66 -62.0756L1133.12 -51.3119M1102.66 -62.0756L1111.34 -94.6064L1140.52 -92.5924L1133.12 -51.3119M1133.12 -51.3119C1133.12 -51.3119 1145.67 -30.5023 1125.7 -16.2834C1105.72 -2.06448 1085.26 -17.8536 1085.26 -17.8536C1080.53 -26.2111 1086.66 -32.662 1133.12 -51.3119ZM1229.3 83.9158L1145.13 90.7863L1150.97 -78.0296L1164.72 -81.8137L1152.09 214.558L1216.42 274.005L1311.98 148.738L1296.12 137.939L1138.74 206.671M1366.06 102.76L1312.24 80.7994L1284.32 83.3671L1287.04 61.1315M1287.04 61.1315L1288.81 46.6784L1308.4 44.1306L1308.43 58.7184L1287.04 61.1315ZM1277.9 12.5274C1277.9 12.5274 1285.78 -0.828979 1278.24 -15.8155C1270.71 -30.8021 1243.59 -43.2409 1243.59 -43.2409L1241.43 -74.4953C1241.43 -74.4953 1250.56 -89.5218 1260.6 -75.7917C1270.63 -62.0615 1256.63 9.66079 1256.63 9.66079M883.688 45.9824L892.113 23.3248M970.885 -91.7689L887.492 -106.157L870.97 -43.598L975.193 -33.428L982.626 -62.2046L927.586 -72.0757L892.113 23.3248M970.885 -91.7689L942.722 -17.0951L984.825 -14.2785L1005.91 -86.4345L970.885 -91.7689ZM914.055 21.3187L910.815 60.5052L857.878 58.9649L872.785 18.0833M872.785 18.0833L892.113 23.3248M872.785 18.0833L849.841 9.80242L808.813 79.6383M808.813 79.6383L786.331 117.905L735.05 111.359L762.814 44.1882L826.339 56.4093L808.813 79.6383ZM808.813 79.6383L772.446 63.3377L720.297 42.623L693.54 182.313L731.051 182.223L720.747 230.18M758.148 184.242L752.016 234.273L777.861 235.878L773.384 280.902" stroke="url(#paint2_linear_76_283)" stroke-opacity="0.3" stroke-width="2"/>
<path d="M908.35 785.052L955.375 820.714M961.287 840.806L950.994 862.683M1010.66 893.414L950.994 862.683M1063.98 921.95L1073.67 894.671L1131.89 931.19L1125.76 990.879L1001.77 929.448M880.884 942.93L911.068 941.051L925.07 916.353L1037.99 999.403M968.128 888.292L966.051 885.188M950.994 862.683L966.051 885.188M887.201 828.065L927.262 853.801L951.776 896.043L966.051 885.188M867.545 899.215L794.951 914.611L803.36 945.684L871.889 935.72M869.756 951.392L827.108 956.896M1003.18 1002.13L1008.48 1041.43M1003.18 1002.13L1072.79 996.672M1003.18 1002.13L943.766 1008.68M897.653 941.886L906.759 1021.6M923.604 976.011L932.71 1055.73M879.521 850.298L900.479 862.461M1179.26 1047.37L1145.19 1053.38M1046.73 1102.5L1042.98 1071.4L1111.12 1059.39M1046.73 1102.5L1122.14 1090.81M1046.73 1102.5C1011.06 1120.26 1031.52 1133.44 1028.06 1127.23M1046.73 1102.5L1067.84 1228.44M1122.14 1090.81L1111.12 1059.39M1122.14 1090.81L1126.41 1115.67M1111.12 1059.39L1145.19 1053.38M1145.19 1053.38L1161.06 1112.74L1126.41 1115.67M1126.41 1115.67L1081.34 1121.84L1076.05 1097.96M903.609 1108.3C906.744 1108.73 940.926 1104.51 957.626 1102.35L966.723 1152.8L927.25 1159.4L913.693 1083.07M844.303 991.824L849.713 1020.49M849.713 1020.49L869.001 1005.83L873.314 1037.67L814.847 1047.01L849.713 1020.49ZM849.713 1020.49L812.257 1022.05M891.878 1082.1L833.233 1092.74M833.233 1092.74L841.735 1137.79L866.655 1101.28M833.233 1092.74L814.771 1091.56L822.447 1152.46L870.466 1141.7L866.655 1101.28M833.233 1092.74L866.655 1101.28M833.233 1092.74L828.062 1072.08M866.655 1101.28L863.795 1063.64C850.771 1026.14 854.672 999.221 799.03 984.102M721.901 889.375C720.386 908.791 721.643 920.701 732.157 945.972L703.634 945.417C693.342 946.852 687.86 946.448 690.974 891.818L721.901 889.375ZM721.901 889.375C759.793 963.219 776.148 981.435 799.03 984.102M799.03 984.102C782.614 1013.45 759.655 1025.75 750.227 1028.24L736.262 974.464L725.636 974.348L738.087 1024.59L696.42 1037.55L599.537 1016.38L611.536 942.862M611.536 942.862L616.542 910.954M611.536 942.862L577.967 940.29L574.604 911.234L616.542 910.954M616.542 910.954C616.542 910.954 634.702 894.803 652.337 911.834C669.972 928.865 658.196 951.871 658.196 951.871C650.846 958.056 643.383 953.214 616.542 910.954ZM731.874 791.635L754.039 873.13L587.006 898.29L580.77 885.47L874.443 843.622L921.108 769.496L780.462 698.484L772.75 716.057L869.135 858.196M725.362 653.742L713.626 710.673L721.262 737.65L698.903 739.041M698.903 739.041L684.37 739.946L678.28 721.16L692.614 718.455L698.903 739.041ZM652.795 756.933C652.795 756.933 638.22 751.624 624.867 761.779C611.514 771.933 604.251 800.874 604.251 800.874L573.92 808.719C573.92 808.719 557.476 802.491 569.136 790.11C580.797 777.73 653.87 778.361 653.87 778.361M757.859 1138.35L734.041 1134.22M606.471 1077.85L607.595 1162.47L672.121 1167.26L663.037 1062.93L633.386 1060.89L633.759 1116.81L734.041 1134.22M606.471 1077.85L685.039 1091.86L680.099 1049.96L605.303 1042.44L606.471 1077.85ZM728.052 1113.01L767.169 1109.02L775.347 1161.35L732.427 1154.18M732.427 1154.18L734.041 1134.22M732.427 1154.18L728.487 1178.25L804.654 1205.8M804.654 1205.8L846.39 1220.9L849.344 1272.51L778.225 1257.51L778.609 1192.82L804.654 1205.8ZM804.654 1205.8L795.287 1244.54L784.471 1299.6L926.699 1300.33L919.742 1263.46L968.775 1264.82M916.766 1236.46L967.073 1233.33L963.92 1207.62L1009 1203.78" stroke="url(#paint3_linear_76_283)" stroke-opacity="0.3" stroke-width="2"/>
<path d="M1507.77 272.435L1524.34 251.011L1696.32 68.0201L1760.57 171.034L1617.77 359.115L1507.77 272.435ZM1507.77 272.435L1407.78 401.712L1403.21 407.622M1350.08 476.323L1266.66 584.177L1238.84 620.87M1350.08 476.323L1416.19 520.988L1489.3 527.639L1538.47 476.501L1485.1 453.944L1451.12 430.989L1403.21 407.622M1350.08 476.323L1403.21 407.622M1238.84 620.87L1150.32 726.828L1333.07 815.581L1399.98 634.882C1355.74 632.739 1252.92 622.284 1238.84 620.87Z" stroke="url(#paint4_linear_76_283)" stroke-opacity="0.5" stroke-width="5"/>
<path d="M1614.36 294.414L1573.49 344.022L1501.14 289.188L1528.82 245L1556.73 263.367L1550.46 395.191L1491.24 455.905L1469.01 442.711L1416.26 494.64L1382.92 476.53L1370.25 492.808L1383.29 499.8M1383.29 499.8L1410.3 514.282L1376.17 547.093L1348 530.019L1383.29 499.8ZM1378.5 525.381L1254.13 602.606" stroke="#05CAAD" stroke-opacity="0.1" stroke-width="2"/>
<path d="M1522.42 735.94L1519.05 546.723L1416.92 540.716L1363.06 500L1383 473.277" stroke="#05CAAD" stroke-opacity="0.2" stroke-width="2"/>
<ellipse opacity="0.3" cx="1155.18" cy="591.879" rx="12.8448" ry="6.40316" fill="black"/>
<path d="M1181.32 549.251C1181.32 571.287 1155.18 591.88 1155.18 591.88C1155.18 591.88 1129.04 571.287 1129.04 549.251C1129.04 535.258 1140.74 523.915 1155.18 523.915C1169.62 523.915 1181.32 535.258 1181.32 549.251Z" fill="#05CAAD"/>
<g filter="url(#filter0_i_76_283)">
<path fill-rule="evenodd" clip-rule="evenodd" d="M1406.12 185.965L1034.6 676.889L988.964 756.568L816.103 676.889V634.689L946.869 698.087L984.446 693.476L1028.28 610.662L1367 185.965H1406.12Z" fill="#28A265" fill-opacity="0.35"/>
</g>
<g filter="url(#filter1_i_76_283)">
<path fill-rule="evenodd" clip-rule="evenodd" d="M1610.5 10.5002L1063.49 681.954L1016.54 763.877L1439.32 968.268L1441.97 923.865L1103.17 763.877L1089 708.121L1137.12 641.82L1610.5 70.5L1610.5 10.5002Z" fill="#28A265" fill-opacity="0.35"/>
</g>
<path d="M1154.43 589.481L1118.48 593.629C1116.63 593.842 1114.94 594.781 1113.79 596.24L1052.44 673.468C1052.22 673.74 1052.02 674.027 1051.85 674.328L999.875 764.42C997.834 767.957 999.226 772.483 1002.9 774.261L1436 983.825" stroke="#00FFDA" stroke-width="4" stroke-linecap="round"/>
</g>
<defs>
<filter id="filter0_i_76_283" x="816.103" y="185.965" width="590.022" height="574.604" filterUnits="userSpaceOnUse" color-interpolation-filters="sRGB">
<feFlood flood-opacity="0" result="BackgroundImageFix"/>
<feBlend mode="normal" in="SourceGraphic" in2="BackgroundImageFix" result="shape"/>
<feColorMatrix in="SourceAlpha" type="matrix" values="0 0 0 0 0 0 0 0 0 0 0 0 0 0 0 0 0 0 127 0" result="hardAlpha"/>
<feOffset dy="4"/>
<feGaussianBlur stdDeviation="2"/>
<feComposite in2="hardAlpha" operator="arithmetic" k2="-1" k3="1"/>
<feColorMatrix type="matrix" values="0 0 0 0 0 0 0 0 0 0 0 0 0 0 0 0 0 0 0.25 0"/>
<feBlend mode="normal" in2="shape" result="effect1_innerShadow_76_283"/>
</filter>
<filter id="filter1_i_76_283" x="1016.54" y="10.5" width="593.96" height="961.768" filterUnits="userSpaceOnUse" color-interpolation-filters="sRGB">
<feFlood flood-opacity="0" result="BackgroundImageFix"/>
<feBlend mode="normal" in="SourceGraphic" in2="BackgroundImageFix" result="shape"/>
<feColorMatrix in="SourceAlpha" type="matrix" values="0 0 0 0 0 0 0 0 0 0 0 0 0 0 0 0 0 0 127 0" result="hardAlpha"/>
<feOffset dy="4"/>
<feGaussianBlur stdDeviation="2"/>
<feComposite in2="hardAlpha" operator="arithmetic" k2="-1" k3="1"/>
<feColorMatrix type="matrix" values="0 0 0 0 0 0 0 0 0 0 0 0 0 0 0 0 0 0 0.25 0"/>
<feBlend mode="normal" in2="shape" result="effect1_innerShadow_76_283"/>
</filter>
<linearGradient id="paint0_linear_76_283" x1="1171.34" y1="425.154" x2="766.498" y2="17.8354" gradientUnits="userSpaceOnUse">
<stop stop-color="#05CAAD"/>
<stop offset="1" stop-color="#05CAAD" stop-opacity="0"/>
</linearGradient>
<linearGradient id="paint1_linear_76_283" x1="1077.95" y1="786.141" x2="751.639" y2="1258.71" gradientUnits="userSpaceOnUse">
<stop stop-color="#05CAAD"/>
<stop offset="1" stop-color="#05CAAD" stop-opacity="0"/>
</linearGradient>
<linearGradient id="paint2_linear_76_283" x1="1151.67" y1="384.819" x2="901.229" y2="-113.067" gradientUnits="userSpaceOnUse">
<stop stop-color="#05CAAD"/>
<stop offset="1" stop-color="#05CAAD" stop-opacity="0"/>
</linearGradient>
<linearGradient id="paint3_linear_76_283" x1="1041.91" y1="812.868" x2="598.286" y2="1150.23" gradientUnits="userSpaceOnUse">
<stop stop-color="#05CAAD"/>
<stop offset="1" stop-color="#05CAAD" stop-opacity="0"/>
</linearGradient>
<linearGradient id="paint4_linear_76_283" x1="1549.54" y1="483.416" x2="1402.04" y2="383.77" gradientUnits="userSpaceOnUse">
<stop stop-color="#05CAAD" stop-opacity="0"/>
<stop offset="1" stop-color="#05CAAD"/>
</linearGradient>
<clipPath id="clip0_76_283">
<rect width="2049" height="1691" fill="white" transform="translate(0 -501)"/>
</clipPath>
</defs>
</svg>
