<svg width="31" height="31" viewBox="0 0 31 31" fill="none" xmlns="http://www.w3.org/2000/svg">
<path d="M2.8434 6.69026C2.55276 6.8557 2.31125 7.09533 2.14355 7.38468C1.97586 7.67403 1.88799 8.00271 1.88893 8.33714V25.8542C1.88787 26.1806 1.9714 26.5017 2.13136 26.7861C2.29133 27.0706 2.52227 27.3088 2.80168 27.4774C3.08109 27.6461 3.39944 27.7395 3.72568 27.7485C4.05193 27.7575 4.37494 27.6818 4.66323 27.5288C4.68861 27.5153 4.71341 27.5011 4.73761 27.4852L9.7042 24.2357C9.77016 24.1927 9.82431 24.1338 9.86173 24.0646C9.89916 23.9953 9.91866 23.9177 9.91847 23.839V2.74189C9.91872 2.65587 9.89546 2.57142 9.8512 2.49765C9.80695 2.42388 9.74339 2.3636 9.66738 2.32332C9.59138 2.28304 9.50581 2.26428 9.41992 2.26908C9.33403 2.27388 9.25109 2.30204 9.18004 2.35054L2.8434 6.69026ZM12.5352 2.32044C12.464 2.27415 12.3816 2.24793 12.2968 2.24452C12.2119 2.24111 12.1277 2.26065 12.053 2.30107C11.9783 2.34149 11.916 2.40131 11.8724 2.47421C11.8289 2.54711 11.8058 2.63041 11.8056 2.71533V23.8213C11.8054 23.9 11.8249 23.9776 11.8623 24.0469C11.8998 24.1161 11.9539 24.175 12.0199 24.218L17.6865 27.9025C17.7578 27.9489 17.8403 27.9753 17.9252 27.9788C18.0102 27.9822 18.0946 27.9627 18.1694 27.9222C18.2442 27.8817 18.3066 27.8217 18.3502 27.7486C18.3937 27.6755 18.4167 27.5921 18.4167 27.507V6.4146C18.4169 6.33571 18.3974 6.25802 18.3598 6.18862C18.3223 6.11923 18.268 6.06034 18.2018 6.01735L12.5352 2.32044ZM27.4202 2.74307C27.1418 2.57271 26.8237 2.47827 26.4974 2.46915C26.1712 2.46004 25.8483 2.53657 25.5608 2.69113C25.5354 2.70419 25.5107 2.71877 25.487 2.73481L20.5199 5.98134C20.4539 6.02435 20.3998 6.08317 20.3623 6.15245C20.3249 6.22173 20.3054 6.29926 20.3056 6.378V27.4781C20.3053 27.5642 20.3285 27.6488 20.3728 27.7226C20.4171 27.7965 20.4807 27.8568 20.5568 27.8971C20.6329 27.9374 20.7186 27.9561 20.8046 27.9513C20.8906 27.9464 20.9736 27.9181 21.0446 27.8694L27.3647 23.5332C27.6589 23.3691 27.9038 23.1294 28.0741 22.8388C28.2444 22.5482 28.3339 22.2173 28.3334 21.8805V4.40825C28.3373 4.07558 28.2553 3.74754 28.0953 3.45584C27.9353 3.16414 27.7028 2.91864 27.4202 2.74307Z" fill="white"/>
</svg>
