<svg width="31" height="31" viewBox="0 0 31 31" fill="none" xmlns="http://www.w3.org/2000/svg">
<g clip-path="url(#clip0_87_419)">
<path d="M5.66663 3.77778C5.66663 2.77585 6.06464 1.81496 6.77311 1.10649C7.48158 0.398015 8.44247 0 9.4444 0L20.7777 0C21.7797 0 22.7406 0.398015 23.449 1.10649C24.1575 1.81496 24.5555 2.77585 24.5555 3.77778V26.4444C24.5555 27.4464 24.1575 28.4073 23.449 29.1157C22.7406 29.8242 21.7797 30.2222 20.7777 30.2222H9.4444C8.44247 30.2222 7.48158 29.8242 6.77311 29.1157C6.06464 28.4073 5.66663 27.4464 5.66663 26.4444V3.77778ZM17 24.5556C17 24.0546 16.801 23.5741 16.4467 23.2199C16.0925 22.8657 15.612 22.6667 15.1111 22.6667C14.6101 22.6667 14.1297 22.8657 13.7754 23.2199C13.4212 23.5741 13.2222 24.0546 13.2222 24.5556C13.2222 25.0565 13.4212 25.537 13.7754 25.8912C14.1297 26.2454 14.6101 26.4444 15.1111 26.4444C15.612 26.4444 16.0925 26.2454 16.4467 25.8912C16.801 25.537 17 25.0565 17 24.5556Z" fill="white"/>
</g>
<defs>
<clipPath id="clip0_87_419">
<rect width="30.2222" height="30.2222" fill="white"/>
</clipPath>
</defs>
</svg>
