<svg width="34" height="23" viewBox="0 0 34 23" fill="none" xmlns="http://www.w3.org/2000/svg">
<path d="M33.8342 20.2688L25.5827 1.37988C25.2893 0.708144 24.65 0.277832 23.9464 0.277832H18.1859L18.3305 1.64492C18.36 1.92353 18.141 2.16672 17.8606 2.16672H16.1394C15.859 2.16672 15.64 1.92353 15.6695 1.64492L15.8142 0.277832H10.0536C9.34943 0.277832 8.71016 0.708144 8.41679 1.37988L0.165302 20.2688C-0.380704 21.5196 0.490546 22.9445 1.80273 22.9445H13.4218L14.0303 17.1787C14.0811 16.6982 14.486 16.3334 14.9695 16.3334H19.0306C19.514 16.3334 19.9189 16.6982 19.9697 17.1787L20.5783 22.9445H32.1973C33.5095 22.9445 34.3808 21.5196 33.8342 20.2688ZM15.3709 4.47825C15.3831 4.36219 15.4379 4.25479 15.5247 4.17674C15.6114 4.0987 15.724 4.05555 15.8407 4.05561H18.1599C18.4013 4.05561 18.6044 4.23801 18.6298 4.47825L18.9013 7.05068C18.9456 7.46919 18.6174 7.83339 18.1971 7.83339H15.8041C15.3833 7.83339 15.0556 7.46919 15.0999 7.05068L15.3709 4.47825ZM18.6316 14.4445H15.3679C14.8071 14.4445 14.3697 13.9587 14.4288 13.4009L14.728 10.5676C14.7788 10.0871 15.1837 9.72228 15.6672 9.72228H18.3323C18.8157 9.72228 19.2206 10.0871 19.2714 10.5676L19.5707 13.4009C19.6297 13.9587 19.1923 14.4445 18.6316 14.4445Z" fill="white"/>
</svg>
