<svg width="24" height="24" viewBox="0 0 24 24" fill="none" xmlns="http://www.w3.org/2000/svg">
<path d="M10.3503 1.40717C11.1447 0.248029 12.8553 0.248029 13.6497 1.40717L16.5353 5.61761C16.7954 5.99707 17.1783 6.27528 17.6196 6.40535L22.5156 7.84862C23.8635 8.24596 24.3922 9.87289 23.5352 10.9866L20.4226 15.0321C20.142 15.3967 19.9958 15.8468 20.0084 16.3067L20.1488 21.4091C20.1874 22.8138 18.8034 23.8193 17.4794 23.3485L12.6701 21.6383C12.2367 21.4842 11.7633 21.4842 11.3299 21.6383L6.52058 23.3485C5.19656 23.8193 3.8126 22.8138 3.85124 21.4091L3.99157 16.3067C4.00422 15.8468 3.85796 15.3967 3.57743 15.0321L0.464769 10.9866C-0.392156 9.87289 0.136466 8.24596 1.48437 7.84862L6.38042 6.40535C6.82168 6.27528 7.2046 5.99707 7.46466 5.61761L10.3503 1.40717Z" fill="#FFC50A"/>
</svg>
