<svg width="24" height="27" viewBox="0 0 24 27" fill="none" xmlns="http://www.w3.org/2000/svg">
<path d="M12 22C12.6139 22 13.1215 21.7993 13.5229 21.3979C13.9243 20.9965 14.125 20.4889 14.125 19.875C14.125 19.2611 13.9243 18.7535 13.5229 18.3521C13.1215 17.9507 12.6139 17.75 12 17.75C11.3861 17.75 10.8785 17.9507 10.4771 18.3521C10.0757 18.7535 9.87502 19.2611 9.87502 19.875C9.87502 20.4889 10.0757 20.9965 10.4771 21.3979C10.8785 21.7993 11.3861 22 12 22ZM12 15.625C12.6139 15.625 13.1215 15.4243 13.5229 15.0229C13.9243 14.6215 14.125 14.1139 14.125 13.5C14.125 12.8861 13.9243 12.3785 13.5229 11.9771C13.1215 11.5757 12.6139 11.375 12 11.375C11.3861 11.375 10.8785 11.5757 10.4771 11.9771C10.0757 12.3785 9.87502 12.8861 9.87502 13.5C9.87502 14.1139 10.0757 14.6215 10.4771 15.0229C10.8785 15.4243 11.3861 15.625 12 15.625ZM12 9.25C12.6139 9.25 13.1215 9.04931 13.5229 8.64792C13.9243 8.24653 14.125 7.73889 14.125 7.125C14.125 6.51111 13.9243 6.00347 13.5229 5.60209C13.1215 5.2007 12.6139 5 12 5C11.3861 5 10.8785 5.2007 10.4771 5.60209C10.0757 6.00347 9.87502 6.51111 9.87502 7.125C9.87502 7.73889 10.0757 8.24653 10.4771 8.64792C10.8785 9.04931 11.3861 9.25 12 9.25ZM4.91669 17.75V16.1208C3.71252 15.7903 2.70291 15.1292 1.88786 14.1375C1.0728 13.1458 0.665744 11.9889 0.666689 10.6667H4.91669V9.0375C3.71252 8.70695 2.70291 8.04584 1.88786 7.05417C1.0728 6.0625 0.665744 4.90556 0.666689 3.58334H4.91669C4.91669 2.80417 5.19436 2.13692 5.74969 1.58159C6.30502 1.02625 6.9718 0.749058 7.75002 0.750002H16.25C17.0292 0.750002 17.6964 1.02767 18.2518 1.583C18.8071 2.13834 19.0843 2.80511 19.0834 3.58334H23.3334C23.3334 4.90556 22.9258 6.0625 22.1108 7.05417C21.2957 8.04584 20.2866 8.70695 19.0834 9.0375V10.6667H23.3334C23.3334 11.9889 22.9258 13.1458 22.1108 14.1375C21.2957 15.1292 20.2866 15.7903 19.0834 16.1208V17.75H23.3334C23.3334 19.0722 22.9258 20.2292 22.1108 21.2208C21.2957 22.2125 20.2866 22.8736 19.0834 23.2042V23.4167C19.0834 24.1958 18.8057 24.8631 18.2504 25.4184C17.695 25.9738 17.0282 26.2509 16.25 26.25H7.75002C6.97086 26.25 6.30361 25.9723 5.74827 25.417C5.19294 24.8617 4.91574 24.1949 4.91669 23.4167V23.2042C3.71252 22.8736 2.70291 22.2125 1.88786 21.2208C1.0728 20.2292 0.665744 19.0722 0.666689 17.75H4.91669Z" fill="white"/>
</svg>
