<svg width="32" height="32" viewBox="0 0 32 32" fill="none" xmlns="http://www.w3.org/2000/svg">
<path d="M16 2.66663C17.3186 2.66663 18.6075 3.05762 19.7038 3.79016C20.8001 4.5227 21.6546 5.5639 22.1592 6.78207C22.6638 8.00024 22.7958 9.34069 22.5386 10.6339C22.2814 11.9271 21.6464 13.115 20.7141 14.0473C19.7817 14.9797 18.5938 15.6146 17.3006 15.8719C16.0074 16.1291 14.667 15.9971 13.4488 15.4925C12.2306 14.9879 11.1894 14.1334 10.4569 13.0371C9.72435 11.9408 9.33335 10.6518 9.33335 9.33329L9.34002 9.04396C9.41458 7.32763 10.1488 5.70633 11.3897 4.51817C12.6305 3.33001 14.2821 2.66673 16 2.66663ZM18.6667 18.6666C20.4348 18.6666 22.1305 19.369 23.3807 20.6192C24.631 21.8695 25.3334 23.5652 25.3334 25.3333V26.6666C25.3334 27.3739 25.0524 28.0521 24.5523 28.5522C24.0522 29.0523 23.3739 29.3333 22.6667 29.3333H9.33335C8.62611 29.3333 7.94783 29.0523 7.44774 28.5522C6.94764 28.0521 6.66669 27.3739 6.66669 26.6666V25.3333C6.66669 23.5652 7.36907 21.8695 8.61931 20.6192C9.86955 19.369 11.5652 18.6666 13.3334 18.6666H18.6667Z" fill="#28A265"/>
</svg>
